<svg width="64" height="64" viewBox="0 0 64 64" fill="none" xmlns="http://www.w3.org/2000/svg">
<circle cx="32" cy="32" r="32" fill="#F27474"/>
<path fill-rule="evenodd" clip-rule="evenodd" d="M32.9509 20.5878L36.0389 26.7998C36.1935 27.1131 36.4922 27.3318 36.8389 27.3824L43.7522 28.3811C44.0322 28.4184 44.2842 28.5651 44.4562 28.7891C44.7789 29.2091 44.7295 29.8038 44.3429 30.1651L39.3322 35.0104C39.0775 35.2504 38.9642 35.6024 39.0309 35.9451L40.2309 42.7824C40.3149 43.3491 39.9282 43.8798 39.3615 43.9718C39.1269 44.0078 38.8869 43.9704 38.6735 43.8651L32.5162 40.6371C32.2069 40.4691 31.8362 40.4691 31.5269 40.6371L25.3242 43.8824C24.8055 44.1464 24.1709 43.9504 23.8882 43.4424C23.7802 43.2371 23.7429 43.0038 23.7802 42.7758L24.9802 35.9384C25.0402 35.5971 24.9269 35.2464 24.6789 35.0051L19.6415 30.1611C19.2309 29.7531 19.2282 29.0891 19.6375 28.6784C19.6389 28.6771 19.6402 28.6744 19.6415 28.6731C19.8109 28.5198 20.0189 28.4171 20.2442 28.3771L27.1589 27.3784C27.5042 27.3238 27.8015 27.1078 27.9589 26.7944L31.0442 20.5878C31.1682 20.3358 31.3882 20.1424 31.6549 20.0544C31.9229 19.9651 32.2162 19.9864 32.4682 20.1131C32.6749 20.2158 32.8442 20.3824 32.9509 20.5878Z" stroke="white" stroke-width="1.5" stroke-linecap="round" stroke-linejoin="round"/>
</svg>
