<svg width="64" height="64" viewBox="0 0 64 64" fill="none" xmlns="http://www.w3.org/2000/svg">
<circle cx="32" cy="32" r="32" fill="#F27474"/>
<path fill-rule="evenodd" clip-rule="evenodd" d="M31.68 44.805C28.7859 43.0239 26.0935 40.9275 23.6511 38.5536C21.9339 36.8439 20.6267 34.7597 19.8295 32.4605C18.3949 28.0004 20.0706 22.8944 24.7602 21.3834C27.2248 20.5899 29.9166 21.0434 31.9935 22.602C34.0711 21.0453 36.762 20.592 39.2268 21.3834C43.9164 22.8944 45.6041 28.0004 44.1695 32.4605C43.3723 34.7597 42.0651 36.8439 40.3479 38.5536C37.9055 40.9275 35.2131 43.0239 32.319 44.805L32.0055 45L31.68 44.805Z" stroke="white" stroke-width="1.5" stroke-linecap="round" stroke-linejoin="round"/>
<path d="M36.9844 26.4041C38.4048 26.8578 39.414 28.133 39.5401 29.6334" stroke="white" stroke-width="1.5" stroke-linecap="round" stroke-linejoin="round"/>
</svg>
