<svg width="22" height="27" viewBox="0 0 22 27" fill="none" xmlns="http://www.w3.org/2000/svg">
<path d="M21.2189 20.4149C20.8497 21.2755 20.3935 22.0962 19.8575 22.8642C19.1416 23.8869 18.5536 24.5935 18.1029 24.9869C17.4029 25.6295 16.6509 25.9602 15.8469 25.9789C15.2709 25.9789 14.5749 25.8149 13.7642 25.4815C12.9509 25.1495 12.2042 24.9869 11.5202 24.9869C10.8042 24.9869 10.0362 25.1495 9.21355 25.4815C8.39222 25.8149 7.72822 25.9895 7.22022 26.0055C6.45089 26.0389 5.68155 25.7002 4.91489 24.9869C4.42555 24.5602 3.81355 23.8269 3.07889 22.7895C2.29222 21.6842 1.64555 20.3975 1.13889 18.9349C0.596219 17.3522 0.324219 15.8215 0.324219 14.3389C0.324219 12.6415 0.690886 11.1762 1.42555 9.94953C1.98122 8.98615 2.77562 8.18211 3.73222 7.61486C4.67551 7.04909 5.75233 6.74444 6.85222 6.73219C7.46555 6.73219 8.26955 6.92153 9.26555 7.29486C10.2616 7.66819 10.9016 7.85753 11.1802 7.85753C11.3909 7.85753 12.0989 7.63486 13.3042 7.19353C14.4416 6.78419 15.4016 6.61486 16.1882 6.68153C18.3216 6.85353 19.9229 7.69353 20.9882 9.20819C19.0816 10.3642 18.1389 11.9815 18.1576 14.0575C18.1736 15.6749 18.7616 17.0202 19.9136 18.0882C20.4228 18.5756 21.0171 18.9656 21.6669 19.2389C21.5256 19.6482 21.3762 20.0389 21.2189 20.4149ZM16.3295 1.17353C16.3295 2.44019 15.8656 3.62419 14.9442 4.71886C13.8296 6.02019 12.4829 6.77353 11.0229 6.65486C11.0038 6.49558 10.9944 6.33528 10.9949 6.17486C10.9949 4.95753 11.5229 3.65619 12.4656 2.59086C12.9349 2.05219 13.5322 1.60286 14.2562 1.24553C14.9789 0.893527 15.6616 0.698861 16.3042 0.665527C16.3216 0.836194 16.3295 1.00553 16.3295 1.17353Z" fill="#6F747C"/>
</svg>
