<svg width="322" height="98" viewBox="0 0 322 98" fill="none" xmlns="http://www.w3.org/2000/svg">
<path d="M2.01079 0.500039C1.18239 0.494079 0.505999 1.1608 0.500039 1.98921L0.402919 15.4889C0.396959 16.3173 1.06368 16.9937 1.89209 16.9996C2.72049 17.0056 3.39688 16.3388 3.40284 15.5104L3.48917 3.51075L15.4889 3.59708C16.3173 3.60304 16.9937 2.93632 16.9996 2.10791C17.0056 1.27951 16.3388 0.603118 15.5104 0.597159L2.01079 0.500039ZM320.809 91.0122C196.647 106.969 71.6593 70.5321 3.06826 0.946998L0.931737 3.053C70.3407 73.4679 196.353 110.031 321.191 93.9878L320.809 91.0122Z" fill="#E5454C"/>
</svg>
