<svg width="42" height="42" viewBox="0 0 42 42" fill="none" xmlns="http://www.w3.org/2000/svg">
<circle cx="21" cy="21" r="20.5" stroke="#F27474"/>
<path d="M22.9946 20.6446L22.6398 20.9986L22.9946 21.3525L30.1543 28.4966L30.1554 28.4977C30.2646 28.606 30.3512 28.7349 30.4104 28.8769C30.4695 29.0189 30.5 29.1712 30.5 29.325C30.5 29.4789 30.4695 29.6312 30.4104 29.7732C30.3512 29.9152 30.2646 30.0441 30.1553 30.1524L30.1525 30.1553C30.0441 30.2646 29.9153 30.3512 29.7733 30.4104C29.6314 30.4695 29.4791 30.5 29.3253 30.5C29.1715 30.5 29.0192 30.4695 28.8773 30.4104C28.7353 30.3512 28.6064 30.2646 28.4981 30.1553L28.4971 30.1543L21.354 22.9935L21 22.6387L20.646 22.9935L13.5029 30.1543L13.5019 30.1553C13.3936 30.2646 13.2647 30.3512 13.1227 30.4104C12.9808 30.4695 12.8285 30.5 12.6747 30.5C12.5209 30.5 12.3686 30.4695 12.2267 30.4104C12.0847 30.3512 11.9559 30.2646 11.8475 30.1553L11.8446 30.1524C11.7354 30.0441 11.6488 29.9152 11.5896 29.7732L11.1307 29.9644L11.5896 29.7732C11.5305 29.6312 11.5 29.4789 11.5 29.325C11.5 29.1712 11.5305 29.0189 11.5896 28.8769L11.1307 28.6857L11.5896 28.8769C11.6488 28.7349 11.7354 28.606 11.8446 28.4977L11.8457 28.4966L19.0054 21.3525L19.3601 20.9986L19.0054 20.6446L11.8461 13.5009C11.846 13.5009 11.8459 13.5008 11.8458 13.5007C11.6262 13.2809 11.5028 12.9829 11.5028 12.6721C11.5028 12.3612 11.6263 12.0631 11.8461 11.8433C12.0659 11.6235 12.3639 11.5 12.6747 11.5C12.9854 11.5 13.2834 11.6234 13.5031 11.8431C13.5032 11.8431 13.5033 11.8432 13.5033 11.8433L20.646 19.0036L21 19.3585L21.354 19.0036L28.4967 11.8433L28.4971 11.8429C28.7168 11.6233 29.0147 11.5 29.3253 11.5C29.6361 11.5 29.9341 11.6235 30.1539 11.8433C30.3737 12.0631 30.4972 12.3612 30.4972 12.6721C30.4972 12.983 30.3737 13.2811 30.1539 13.5009L22.9946 20.6446Z" fill="#F27474" stroke="#F4F4F4"/>
</svg>
