<svg width="30" height="30" viewBox="0 0 30 30" fill="none" xmlns="http://www.w3.org/2000/svg">
<path d="M17.9215 14.5099L28.3132 4.14239C28.7682 3.68732 29.0239 3.07012 29.0239 2.42655C29.0239 1.78299 28.7682 1.16579 28.3132 0.710722C27.8581 0.255654 27.2409 0 26.5973 0C25.9538 0 25.3366 0.255654 24.8815 0.710722L14.514 11.1024L4.14651 0.710722C3.69145 0.255654 3.07424 -4.79491e-09 2.43068 0C1.78712 4.79491e-09 1.16991 0.255654 0.714846 0.710722C0.259779 1.16579 0.00412429 1.78299 0.00412428 2.42655C0.00412428 3.07012 0.259779 3.68732 0.714846 4.14239L11.1065 14.5099L0.714846 24.8774C0.488336 25.102 0.30855 25.3693 0.185859 25.6638C0.063168 25.9583 0 26.2742 0 26.5932C0 26.9122 0.063168 27.2281 0.185859 27.5226C0.30855 27.8171 0.488336 28.0844 0.714846 28.309C0.939506 28.5356 1.20679 28.7154 1.50129 28.838C1.79578 28.9607 2.11165 29.0239 2.43068 29.0239C2.74971 29.0239 3.06558 28.9607 3.36007 28.838C3.65457 28.7154 3.92185 28.5356 4.14651 28.309L14.514 17.9174L24.8815 28.309C25.1062 28.5356 25.3735 28.7154 25.668 28.838C25.9624 28.9607 26.2783 29.0239 26.5973 29.0239C26.9164 29.0239 27.2322 28.9607 27.5267 28.838C27.8212 28.7154 28.0885 28.5356 28.3132 28.309C28.5397 28.0844 28.7195 27.8171 28.8422 27.5226C28.9649 27.2281 29.028 26.9122 29.028 26.5932C29.028 26.2742 28.9649 25.9583 28.8422 25.6638C28.7195 25.3693 28.5397 25.102 28.3132 24.8774L17.9215 14.5099Z" fill="#252A2F"/>
</svg>
