<svg width="20" height="20" viewBox="0 0 20 20" fill="none" xmlns="http://www.w3.org/2000/svg">
<g clip-path="url(#clip0)">
<path d="M1.53854 1.61087C1.925 1.22442 2.55157 1.22442 2.93802 1.61087L18.3913 17.0641C18.7777 17.4506 18.7777 18.0771 18.3913 18.4636C18.0048 18.85 17.3782 18.85 16.9918 18.4636L1.53854 3.01036C1.15208 2.6239 1.15208 1.99733 1.53854 1.61087Z" fill="#F27474"/>
</g>
<g clip-path="url(#clip1)">
<path d="M18.3901 1.53756C18.7766 1.92402 18.7766 2.55059 18.3901 2.93705L2.93687 18.3903C2.55042 18.7767 1.92385 18.7767 1.53739 18.3903C1.15094 18.0038 1.15094 17.3772 1.53739 16.9908L16.9906 1.53756C17.3771 1.15111 18.0036 1.15111 18.3901 1.53756Z" fill="#F27474"/>
</g>
<defs>
<clipPath id="clip0">
<rect width="24" height="2" fill="white" transform="translate(2.22266 0.807617) rotate(45)"/>
</clipPath>
<clipPath id="clip1">
<rect width="24" height="2" fill="white" transform="translate(19.1934 2.22168) rotate(135)"/>
</clipPath>
</defs>
</svg>
