<svg width="16" height="16" viewBox="0 0 16 16" fill="none" xmlns="http://www.w3.org/2000/svg">
<path d="M8 0.75C3.99594 0.75 0.75 3.99594 0.75 8C0.75 12.0041 3.99594 15.25 8 15.25C12.0041 15.25 15.25 12.0041 15.25 8C15.25 3.99594 12.0041 0.75 8 0.75ZM9 9H7V7H9V9Z" fill="#DA922A"/>
<path d="M8 2.5C6.91221 2.5 5.84884 2.82257 4.94437 3.42692C4.0399 4.03126 3.33495 4.89025 2.91867 5.89524C2.50238 6.90023 2.39346 8.0061 2.60568 9.073C2.8179 10.1399 3.34173 11.1199 4.11092 11.8891C4.8801 12.6583 5.86011 13.1821 6.92701 13.3943C7.9939 13.6065 9.09977 13.4976 10.1048 13.0813C11.1098 12.6651 11.9687 11.9601 12.5731 11.0556C13.1774 10.1512 13.5 9.0878 13.5 8C13.5 6.54131 12.9205 5.14236 11.8891 4.11091C10.8576 3.07946 9.45869 2.5 8 2.5ZM9 9H7V7H9V9Z" fill="#FBB540"/>
<path d="M6 6V10H10V6H6ZM9 9H7V7H9V9Z" fill="#EA9D2D"/>
<path d="M7.5 3.75H8.5V4.75H7.5V3.75Z" fill="#EA9D2D"/>
<path d="M7.5 11.25H8.5V12.25H7.5V11.25Z" fill="#EA9D2D"/>
<path d="M3.75 7.5H4.75V8.5H3.75V7.5Z" fill="#EA9D2D"/>
<path d="M11.25 7.5H12.25V8.5H11.25V7.5Z" fill="#EA9D2D"/>
<circle cx="8" cy="8" r="7" fill="#EEBC0B"/>
<circle cx="8" cy="8" r="7" stroke="#FFD337"/>
<rect x="5.66797" y="5.66669" width="4.66667" height="4.66667" rx="1" fill="white"/>
<rect x="5.66797" y="5.66669" width="4.66667" height="4.66667" rx="1" stroke="#FFD337"/>
</svg>
