<svg width="47" height="47" viewBox="0 0 47 47" fill="none" xmlns="http://www.w3.org/2000/svg">
<g clip-path="url(#clip0)">
<path d="M43.1017 10.42H37.5671C38.764 9.33242 39.5823 7.83821 39.786 6.13926C39.8996 5.19332 39.8039 4.30942 39.5091 3.5833C38.4445 0.959922 35.0039 -0.534642 31.6763 0.180009C31.6494 0.185747 31.6229 0.192918 31.5963 0.200807C29.6295 0.812187 27.5164 2.831 25.3154 6.20094C24.566 7.34803 23.9385 8.45067 23.4802 9.30517C23.022 8.45067 22.3944 7.34803 21.6454 6.20094C19.4444 2.831 17.3309 0.812187 15.3645 0.200807C15.3379 0.192918 15.3114 0.185747 15.2845 0.180009C13.5974 -0.182516 11.8389 0.00645642 10.3329 0.711426C9.87209 0.927291 9.67344 1.47592 9.8893 1.9367C10.1052 2.39783 10.6534 2.59648 11.1146 2.38062C12.229 1.85852 13.5902 1.71079 14.8556 1.97327C17.5242 2.83924 20.4839 7.56282 21.991 10.42H14.1754C12.1337 10.42 10.2701 9.2417 9.42817 7.4176C9.21481 6.95575 8.66762 6.75387 8.20541 6.96722C7.7432 7.18058 7.54167 7.72813 7.75503 8.19034C8.15126 9.04914 8.71423 9.80252 9.39554 10.42H3.85905C3.35023 10.42 2.9375 10.8327 2.9375 11.3415V20.8249C2.9375 21.3341 3.35023 21.7465 3.85905 21.7465H4.87957V46.0783C4.87957 46.5875 5.2923 46.9999 5.80112 46.9999H41.1593C41.6685 46.9999 42.0809 46.5875 42.0809 46.0783V21.7465H43.1017C43.6106 21.7465 44.0233 21.3341 44.0233 20.8249V11.3415C44.0233 10.8327 43.6106 10.42 43.1017 10.42ZM32.1048 1.97327C34.5306 1.46982 37.0794 2.49752 37.8012 4.27608C37.9791 4.71426 38.0325 5.28261 37.9561 5.91981C37.6481 8.48545 35.4253 10.42 32.7854 10.42H24.9694C26.4747 7.56282 29.433 2.84068 32.1048 1.97327ZM4.7806 19.9034V12.2631H16.0031V19.9034H4.7806ZM27.3005 45.1568H6.72268V21.7465H17.8172V38.7059C17.8172 39.2151 18.2295 39.6275 18.7387 39.6275C19.2475 39.6275 19.6603 39.2151 19.6603 38.7059V21.7465H27.3005V45.1568ZM29.1146 19.9034H17.8462V12.2631H29.1146V19.9034ZM40.2381 45.1568H29.1436V21.7465H40.2378V45.1568H40.2381ZM42.1802 19.9034H30.9577V12.2631H42.1802V19.9034Z" fill="#F27474"/>
<path d="M19.6608 42.3912C19.6608 42.9022 19.2467 43.3163 18.7357 43.3163C18.2247 43.3163 17.8105 42.9022 17.8105 42.3912C17.8105 41.8802 18.2247 41.4661 18.7357 41.4661C19.2467 41.4661 19.6608 41.8802 19.6608 42.3912Z" fill="#F27474"/>
<path d="M9.237 4.20029C9.237 4.71127 8.82284 5.12543 8.31186 5.12543C7.80088 5.12543 7.38672 4.71127 7.38672 4.20029C7.38672 3.68931 7.80088 3.27515 8.31186 3.27515C8.82284 3.27515 9.237 3.68931 9.237 4.20029Z" fill="#F27474"/>
</g>
<defs>
<clipPath id="clip0">
<rect width="47" height="47" fill="white"/>
</clipPath>
</defs>
</svg>
