<svg width="47" height="47" viewBox="0 0 47 47" fill="none" xmlns="http://www.w3.org/2000/svg">
<g clip-path="url(#clip0)">
<path d="M20.0605 40.2073C19.8189 40.2073 19.5822 40.3048 19.4115 40.4762C19.2408 40.6473 19.1426 40.8828 19.1426 41.1245C19.1426 41.3669 19.2408 41.6036 19.4115 41.7743C19.5822 41.945 19.8189 42.0432 20.0605 42.0432C20.3019 42.0432 20.5385 41.945 20.7096 41.7743C20.8803 41.6036 20.9785 41.3669 20.9785 41.1245C20.9785 40.8828 20.8803 40.6473 20.7096 40.4762C20.5385 40.3048 20.3019 40.2073 20.0605 40.2073Z" fill="#F27474"/>
<path d="M38.3442 24.7956L37.6844 21.8154C37.7949 21.829 37.9067 21.8365 38.0204 21.8365H39.8563C40.3634 21.8365 40.7743 21.4256 40.7743 20.9186V17.2467C40.7743 16.7397 40.3634 16.3287 39.8563 16.3287H38.0204C37.4854 16.3287 36.9859 16.4826 36.5628 16.7476L36.2049 15.1307C37.323 14.979 38.1875 14.0191 38.1875 12.8602V11.2021C38.1875 9.93809 37.1594 8.91003 35.8954 8.91003H30.4766C29.503 8.91003 28.6697 9.5207 28.338 10.3788H26.1621C24.8461 10.3788 23.7754 11.4495 23.7754 12.7655C23.7754 14.0815 24.8461 15.1522 26.1621 15.1522H30.8871V17.0021C30.8871 17.5088 31.2981 17.9201 31.8051 17.9201C32.3121 17.9201 32.7231 17.5088 32.7231 17.0021V15.1522H34.3295L36.6338 25.5636L32.2727 33.3312C31.7961 34.1768 30.8975 34.7017 29.9269 34.7017H19.04C18.5842 30.88 15.3254 27.9062 11.3828 27.9062C9.63831 27.9062 7.99242 28.4746 6.623 29.5496C6.62121 29.5507 6.61942 29.5521 6.61762 29.5536C4.98715 30.8359 3.96233 32.6765 3.72351 34.7017H1.83809C1.95786 28.1028 7.36347 22.7714 13.9904 22.7714H19.0335C19.5474 22.7714 19.9658 23.1895 19.9658 23.7037V31.9478C19.9658 32.4549 20.3768 32.8658 20.8838 32.8658H27.2371C29.2298 32.8658 31.0661 31.7825 32.0292 30.0387C32.4749 29.2319 32.7112 28.3183 32.712 27.3971L32.7166 24.347C32.7173 23.8399 32.3068 23.4286 31.7997 23.4279C31.7994 23.4279 31.799 23.4279 31.7987 23.4279C31.2923 23.4279 30.8814 23.8378 30.8807 24.3445L30.876 27.3949C30.8757 28.0074 30.7186 28.6144 30.4224 29.1505C29.782 30.3098 28.5614 31.0299 27.2371 31.0299H21.8018V23.7037C21.8018 22.9406 21.4912 22.2486 20.9903 21.7473C21.4941 21.1929 21.8018 20.4567 21.8018 19.6503C21.8018 18.7388 21.4091 17.9176 20.7841 17.3464C20.9075 17.1 20.9785 16.8229 20.9785 16.5292V6.79297C20.9785 5.78069 20.1548 4.95703 19.1425 4.95703H9.40631C8.39404 4.95703 7.57037 5.78069 7.57037 6.79297V12.1172H3.68012C3.17309 12.1172 2.76215 12.5281 2.76215 13.0352C2.76215 13.5422 3.17309 13.9531 3.68012 13.9531H7.57037V16.5292H0.917969C0.410934 16.5292 0 16.9401 0 17.4471C0 17.9542 0.410934 18.3651 0.917969 18.3651H7.02497C6.84711 18.7574 6.74707 19.1924 6.74707 19.6503C6.74707 20.7217 7.28996 21.6687 8.11506 22.231C3.328 24.4553 0 29.309 0 34.9262V35.6201C0 36.1271 0.410934 36.538 0.917969 36.538H6.07688C6.06505 36.5972 6.05859 36.6585 6.05859 36.7216C6.05859 38.0537 6.55164 39.2722 7.36347 40.207H3.68012C3.17309 40.207 2.76215 40.618 2.76215 41.125C2.76215 41.632 3.17309 42.043 3.68012 42.043H11.2767C11.3122 42.0437 11.3473 42.0458 11.3828 42.0458C14.3185 42.0458 16.707 39.6573 16.707 36.7216C16.707 36.6585 16.7006 36.5972 16.6887 36.538H29.9269C31.3723 36.538 32.7231 35.8452 33.5697 34.6992H34.7322C34.4708 35.3353 34.332 36.021 34.332 36.7216C34.332 38.0537 34.8251 39.2722 35.6369 40.207H23.7324C23.2253 40.207 22.8144 40.618 22.8144 41.125C22.8144 41.632 23.2253 42.043 23.7324 42.043H39.5501C39.5856 42.0437 39.6208 42.0458 39.6562 42.0458C42.592 42.0458 44.9805 39.6573 44.9805 36.7216C44.9805 36.021 44.8417 35.3353 44.5803 34.6992H46.082C46.5891 34.6992 47 34.2883 47 33.7812C47 28.9357 43.147 24.9731 38.3442 24.7956ZM38.0204 18.1647H38.9384V20.0006H38.0204C37.5141 20.0006 37.1024 19.589 37.1024 19.0826C37.1024 18.5767 37.5141 18.1647 38.0204 18.1647ZM15.2731 6.79297V8.81429H13.2514V6.79297H15.2731ZM9.40631 6.79297H11.4154V9.73226C11.4154 10.2393 11.8267 10.6502 12.3334 10.6502H16.191C16.6981 10.6502 17.109 10.2393 17.109 9.73226V6.79297H19.1425L19.144 16.5292C19.144 16.5292 19.1432 16.5292 19.1425 16.5292H9.40631V6.79297ZM9.86816 20.9354C9.15961 20.9354 8.58301 20.3588 8.58301 19.6503C8.58301 18.9417 9.15961 18.3651 9.86816 18.3651H18.6807C19.3892 18.3651 19.9658 18.9417 19.9658 19.6503C19.9658 20.3588 19.3892 20.9354 18.6807 20.9354H9.86816ZM14.8711 36.7216C14.8711 38.6332 13.3252 40.1898 11.4183 40.2088C11.4065 40.2085 11.3946 40.207 11.3828 40.207H11.277C9.40237 40.1507 7.89453 38.6096 7.89453 36.7216C7.89453 36.6585 7.88808 36.5972 7.87624 36.538H14.8894C14.8775 36.5972 14.8711 36.6585 14.8711 36.7216ZM5.57594 34.7021C5.80328 33.2437 6.56921 31.9263 7.75217 30.9972C7.75504 30.9951 7.75755 30.9929 7.76042 30.9908C8.80246 30.1739 10.055 29.7422 11.3828 29.7422C14.3117 29.7422 16.7468 31.8955 17.189 34.7021H5.57594ZM25.6113 12.7655C25.6113 12.4618 25.8584 12.2147 26.1621 12.2147H28.1845V12.8602C28.1845 13.0165 28.2003 13.1689 28.23 13.3163H26.1621C25.8584 13.3163 25.6113 13.0692 25.6113 12.7655ZM31.8051 13.3163H30.4766C30.2252 13.3163 30.0204 13.1119 30.0204 12.8602V11.2021C30.0204 10.9504 30.2252 10.746 30.4766 10.746H35.8954C36.1468 10.746 36.3516 10.9504 36.3516 11.2021V12.8602C36.3516 13.1119 36.1468 13.3163 35.8954 13.3163H31.8051ZM43.1445 36.7216C43.1445 38.6332 41.5987 40.1898 39.6917 40.2088C39.6799 40.2085 39.6681 40.207 39.6562 40.207H39.5505C37.6758 40.1507 36.168 38.6096 36.168 36.7216C36.168 35.9923 36.3953 35.2873 36.8141 34.6992H42.4984C42.9172 35.2873 43.1445 35.9923 43.1445 36.7216ZM42.9373 32.8633H34.6408L38.1412 26.6283C41.7163 26.6942 44.6592 29.3926 45.1056 32.8633H42.9373Z" fill="#F27474"/>
<path d="M31.8045 21.592C32.3116 21.592 32.7225 21.1811 32.7225 20.6741C32.7225 20.167 32.3116 19.7561 31.8045 19.7561H31.8013C31.2943 19.7561 30.8848 20.167 30.8848 20.6741C30.8848 21.1811 31.2975 21.592 31.8045 21.592Z" fill="#F27474"/>
</g>
<defs>
<clipPath id="clip0">
<rect width="47" height="47" fill="#F27474"/>
</clipPath>
</defs>
</svg>
