<svg width="47" height="47" viewBox="0 0 47 47" fill="none" xmlns="http://www.w3.org/2000/svg">
<path d="M46.7414 10.0095C46.5671 9.82961 46.333 9.73047 46.0823 9.73047C44.8697 9.73047 43.7103 10.183 42.818 11.0046C41.9266 11.8262 41.3805 12.9443 41.2794 14.1532C41.1482 15.7404 40.9049 18.0528 40.4918 20.0484C40.4413 20.2935 40.4156 20.5414 40.4156 20.7865C40.4156 21.2693 40.5111 21.7393 40.6993 22.1846C40.7571 22.3217 40.8236 22.454 40.8969 22.582H37.2698V18.2676C37.2698 16.7491 36.0344 15.5137 34.5159 15.5137H31.1127C31.1127 15.5137 28.3936 11.3324 28.3899 11.3283C28.2203 11.0777 27.9375 10.9238 27.6311 10.9238H19.3693C19.0585 10.9238 18.7689 11.081 18.5996 11.3415L15.8876 15.5137H12.4844C10.9659 15.5137 9.73051 16.7491 9.73051 18.2676V22.582H6.10408C6.54149 21.8198 6.6891 20.9243 6.50817 20.0489C6.17715 18.4462 5.91213 16.4626 5.72046 14.1532C5.62003 12.9444 5.07375 11.8263 4.18213 11.0049C3.29023 10.183 2.13093 9.73047 0.917922 9.73047C0.669703 9.73047 0.432133 9.83099 0.259188 10.0091C0.0863343 10.1872 -0.00702308 10.4277 0.000412468 10.6757C0.0116117 11.0556 0.29251 19.871 2.01948 23.7034V27.0991L0.562301 36.2064C0.482162 36.707 0.823004 37.1777 1.32366 37.2579C1.37278 37.2657 1.42161 37.2695 1.4698 37.2695C1.91291 37.2695 2.30295 36.948 2.37511 36.4965L3.72021 28.0898H11.1509L12.496 36.4965C12.5681 36.948 12.9582 37.2695 13.4013 37.2695C13.4494 37.2695 13.4983 37.2657 13.5474 37.2579C14.048 37.1777 14.3889 36.707 14.3088 36.2063L12.8516 27.099V24.3972C14.0332 24.2749 14.6561 23.5832 15.0044 23.194C15.3106 22.852 15.5524 22.5819 16.1563 22.5819V25.3358C16.1563 26.8543 17.3917 28.0898 18.9102 28.0898H22.5821V30.8437C22.5821 31.856 21.7585 32.6796 20.7461 32.6796H19.8282C17.8035 32.6796 16.1563 34.3268 16.1563 36.3515C16.1563 36.8585 16.5674 37.2694 17.0743 37.2694C17.5812 37.2694 17.9922 36.8585 17.9922 36.3515C17.9922 35.3391 18.8158 34.5155 19.8282 34.5155H20.7461C21.842 34.5155 22.8267 34.0323 23.5 33.2685C24.1735 34.0323 25.1581 34.5155 26.2539 34.5155H27.1719C28.1843 34.5155 29.0079 35.3391 29.0079 36.3515C29.0079 36.8585 29.4189 37.2694 29.9258 37.2694C30.4327 37.2694 30.8438 36.8585 30.8438 36.3515C30.8438 34.3268 29.1966 32.6796 27.1719 32.6796H26.2539C25.2416 32.6796 24.418 31.856 24.418 30.8437V28.0898H28.0899C29.6084 28.0898 30.8438 26.8543 30.8438 25.3358V22.5819C31.4477 22.5819 31.6895 22.8521 31.9958 23.1942C32.344 23.5832 32.9669 24.2749 34.1485 24.3972V27.099L32.6913 36.2063C32.6112 36.707 32.9521 37.1777 33.4527 37.2579C33.5018 37.2657 33.5506 37.2695 33.5988 37.2695C34.0419 37.2695 34.4319 36.948 34.5041 36.4965L35.8492 28.0898H43.2799L44.625 36.4965C44.6971 36.948 45.0872 37.2695 45.5303 37.2695C45.5784 37.2695 45.6273 37.2657 45.6764 37.2579C46.177 37.1777 46.5179 36.707 46.4378 36.2063L44.9806 27.099V23.7033C45.0836 23.4752 45.1819 23.2308 45.2789 22.9601C45.3615 22.7288 45.3487 22.48 45.2441 22.2579C45.1385 22.0367 44.954 21.8687 44.7226 21.787C44.6225 21.7512 44.5188 21.7328 44.4142 21.7328C44.0267 21.7328 43.6798 21.9779 43.5495 22.3424C43.5311 22.3938 43.5128 22.4442 43.4943 22.492C43.2245 22.4039 42.9821 22.2533 42.7755 22.0458C42.4377 21.7044 42.2514 21.2573 42.2514 20.7864C42.2514 20.6661 42.2643 20.5422 42.2899 20.4201C42.6352 18.7457 42.9106 16.6886 43.1088 14.3047C43.207 13.1214 43.9946 12.1108 45.1155 11.7261C45.0687 12.6212 45.0036 13.5593 44.9274 14.4406C44.9062 14.6847 44.9806 14.9225 45.1385 15.1107C45.2964 15.2979 45.5176 15.4136 45.7618 15.4347C46.0188 15.4568 46.2713 15.3705 46.4604 15.1979C46.631 15.0428 46.7358 14.8298 46.756 14.5994C46.9451 12.4183 46.9974 10.7467 46.9992 10.676C47.0077 10.4254 46.9149 10.1885 46.7414 10.0095ZM27.631 13.5262L28.9229 15.5137H26.3391L27.631 13.5262ZM19.8674 12.7598H25.9395L24.1494 15.5137H18.0773L19.8674 12.7598ZM3.89086 14.305C4.08859 16.6878 4.36434 18.7453 4.71033 20.4202C4.81947 20.9489 4.68563 21.4932 4.34323 21.9137C4.12062 22.1869 3.82917 22.3852 3.50384 22.4919C2.40834 19.5961 2.00957 14.0833 1.88491 11.7301C2.97243 12.1087 3.79126 13.1054 3.89086 14.305ZM11.0157 26.2538H3.85542V24.4179H11.0157V26.2538ZM28.09 26.2538H18.9102C18.404 26.2538 17.9922 25.842 17.9922 25.3358V23.8397C18.4141 24.1488 19.0003 24.4179 19.8282 24.4179C21.2529 24.4179 21.9652 23.6219 22.3482 23.1941C22.6543 22.8521 22.8961 22.582 23.5 22.582C24.104 22.582 24.3458 22.8522 24.6521 23.1943C25.0349 23.6219 25.7473 24.418 27.1719 24.418C27.9997 24.418 28.5859 24.1489 29.0079 23.8398V25.3359C29.0079 25.842 28.5961 26.2538 28.09 26.2538ZM33.3638 21.9697C32.981 21.5421 32.2686 20.746 30.844 20.746C29.4194 20.746 28.7069 21.542 28.324 21.9697C28.0178 22.3118 27.776 22.5818 27.1721 22.5818C26.5682 22.5818 26.3264 22.3117 26.0201 21.9696C25.6373 21.542 24.9248 20.7459 23.5002 20.7459C22.0756 20.7459 21.3632 21.5419 20.9802 21.9697C20.6741 22.3117 20.4323 22.5818 19.8284 22.5818C19.2244 22.5818 18.9826 22.3116 18.6763 21.9695C18.2935 21.5419 17.5811 20.7458 16.1565 20.7458C14.7319 20.7458 14.0194 21.5418 13.6365 21.9696C13.3303 22.3116 13.0885 22.5817 12.4846 22.5817C12.154 22.5817 11.8014 22.366 11.5666 22.1806V18.2676C11.5666 17.7614 11.9784 17.3496 12.4846 17.3496H34.516C35.0222 17.3496 35.434 17.7614 35.434 18.2676V22.1823C35.2042 22.3644 34.8527 22.5819 34.516 22.5819C33.9119 22.5819 33.6701 22.3118 33.3638 21.9697ZM43.1448 26.2538H35.9846V24.4179H43.1448V26.2538Z" fill="#F27474"/>
<path d="M45.3535 19.5464C45.8605 19.5464 46.2715 19.1354 46.2715 18.6284C46.2715 18.1214 45.8605 17.7104 45.3535 17.7104C44.8465 17.7104 44.4355 18.1214 44.4355 18.6284C44.4355 19.1354 44.8465 19.5464 45.3535 19.5464Z" fill="#F27474"/>
</svg>
