<svg width="47" height="47" viewBox="0 0 47 47" fill="none" xmlns="http://www.w3.org/2000/svg">
<g clip-path="url(#clip0)">
<path d="M46.7318 24.8712L39.0517 17.1721C38.8792 16.9993 38.6454 16.9025 38.4016 16.9025H33.0469V6.42578C33.0469 5.91875 32.6359 5.50781 32.1289 5.50781H0.917969C0.410934 5.50781 0 5.91875 0 6.42578V18.0707C0 18.5778 0.410934 18.9887 0.917969 18.9887C1.425 18.9887 1.83594 18.5778 1.83594 18.0707V11.1397C2.46991 11.5539 3.22652 11.7959 4.03906 11.7959C5.29517 11.7959 6.41897 11.2197 7.16016 10.3175C7.90134 11.2197 9.02514 11.7959 10.2812 11.7959C11.5374 11.7959 12.6612 11.2197 13.4023 10.3175C14.1435 11.2197 15.2673 11.7959 16.5234 11.7959C17.7795 11.7959 18.9033 11.2197 19.6445 10.3175C20.3857 11.2197 21.5095 11.7959 22.7656 11.7959C24.0217 11.7959 25.1455 11.2197 25.8867 10.3175C26.6279 11.2197 27.7517 11.7959 29.0078 11.7959C29.8204 11.7959 30.577 11.5539 31.2109 11.1397V34.5156H19.8841C19.0769 33.1953 17.6225 32.3125 15.9651 32.3125C14.4652 32.3125 13.1313 33.0358 12.2933 34.1517C11.4549 33.0358 10.1213 32.3125 8.62138 32.3125C6.96401 32.3125 5.50925 33.1953 4.70244 34.5156H1.83594V25.4145C1.83594 24.9074 1.425 24.4965 0.917969 24.4965C0.410934 24.4965 0 24.9074 0 25.4145V35.4336C0 35.9406 0.410934 36.3516 0.917969 36.3516H4.0656C4.04408 36.5323 4.03153 36.7159 4.03153 36.9023C4.03153 37.9347 4.37434 38.8885 4.95201 39.6562H0.917969C0.410934 39.6562 0 40.0672 0 40.5742C0 41.0813 0.410934 41.4922 0.917969 41.4922H15.9651C18.496 41.4922 20.555 39.4332 20.555 36.9023C20.555 36.7159 20.5424 36.5323 20.5205 36.3516H34.5497C34.5282 36.5323 34.5156 36.7159 34.5156 36.9023C34.5156 37.9347 34.8584 38.8885 35.4361 39.6562H27.2637C26.7566 39.6562 26.3457 40.0672 26.3457 40.5742C26.3457 41.0813 26.7566 41.4922 27.2637 41.4922H39.1055C41.6363 41.4922 43.6953 39.4332 43.6953 36.9023C43.6953 36.7159 43.6828 36.5323 43.6612 36.3516H46.082C46.5891 36.3516 47 35.9406 47 35.4336V25.5195C47 25.2764 46.9035 25.0433 46.7318 24.8712ZM5.86747 36.9023C5.86747 35.3838 7.10278 34.1484 8.62138 34.1484C10.14 34.1484 11.3753 35.3838 11.3753 36.9023C11.3753 38.4209 10.14 39.6562 8.62138 39.6562C7.10278 39.6562 5.86747 38.4209 5.86747 36.9023ZM12.2933 39.653C12.294 39.6541 12.2947 39.6552 12.2958 39.6562H12.2907C12.2915 39.6552 12.2922 39.6541 12.2933 39.653ZM15.9651 39.6562C14.4465 39.6562 13.2112 38.4209 13.2112 36.9023C13.2112 35.3838 14.4465 34.1484 15.9651 34.1484C17.4837 34.1484 18.719 35.3838 18.719 36.9023C18.719 38.4209 17.4837 39.6562 15.9651 39.6562ZM45.1641 25.8993V27.9062H38.3711C37.8648 27.9062 37.4531 27.4946 37.4531 26.9883V18.7384H38.0208L45.1641 25.8993ZM4.03906 9.95996C2.82419 9.95996 1.83594 8.97171 1.83594 7.75684V7.34375H6.24219V7.75684C6.24219 8.97171 5.25394 9.95996 4.03906 9.95996ZM10.2812 9.95996C9.06638 9.95996 8.07812 8.97171 8.07812 7.75684V7.34375H12.4844V7.75684C12.4844 8.97171 11.4961 9.95996 10.2812 9.95996ZM16.5234 9.95996C15.3086 9.95996 14.3203 8.97171 14.3203 7.75684V7.34375H18.7266V7.75684C18.7266 8.97171 17.7383 9.95996 16.5234 9.95996ZM22.7656 9.95996C21.5508 9.95996 20.5625 8.97171 20.5625 7.75684V7.34375H24.9688V7.75684C24.9688 8.97171 23.9805 9.95996 22.7656 9.95996ZM29.0078 9.95996C27.7929 9.95996 26.8047 8.97171 26.8047 7.75684V7.34375H31.2109V7.75684C31.2109 8.97171 30.2227 9.95996 29.0078 9.95996ZM39.1055 39.6562C37.5869 39.6562 36.3516 38.4209 36.3516 36.9023C36.3516 35.3838 37.5869 34.1484 39.1055 34.1484C40.6241 34.1484 41.8594 35.3838 41.8594 36.9023C41.8594 38.4209 40.6241 39.6562 39.1055 39.6562ZM43.0244 34.5156C42.2176 33.1953 40.7628 32.3125 39.1055 32.3125C37.4481 32.3125 35.9933 33.1953 35.1865 34.5156H33.0469V18.7384H35.6172V26.9883C35.6172 28.5069 36.8525 29.7422 38.3711 29.7422H45.1641V34.5156H43.0244Z" fill="white"/>
<path d="M23.4082 39.6562C23.1669 39.6562 22.9299 39.7545 22.7592 39.9252C22.5885 40.0959 22.4902 40.3329 22.4902 40.5742C22.4902 40.8155 22.5885 41.0526 22.7592 41.2233C22.9299 41.3939 23.1669 41.4922 23.4082 41.4922C23.6495 41.4922 23.8866 41.3939 24.0572 41.2233C24.2279 41.0526 24.3262 40.8155 24.3262 40.5742C24.3262 40.3329 24.2279 40.0959 24.0572 39.9252C23.8866 39.7545 23.6495 39.6562 23.4082 39.6562Z" fill="white"/>
<path d="M16.5234 13.4978C16.0164 13.4978 15.6055 13.9091 15.6055 14.4158V15.1025C10.8184 15.5586 7.04398 19.541 6.91847 24.4159C6.43869 24.446 6.05859 24.8433 6.05859 25.3306C6.05859 27.8615 8.11757 29.9205 10.6484 29.9205H22.3984C24.9293 29.9205 26.9883 27.8615 26.9883 25.3306C26.9883 24.8433 26.6082 24.4457 26.1284 24.4159C26.0029 19.541 22.2285 15.5586 17.4414 15.1025V14.4158C17.4414 13.9091 17.0305 13.4978 16.5234 13.4978ZM22.3984 28.0845H10.6484C9.45185 28.0845 8.43061 27.3175 8.05195 26.2486H24.9949C24.6163 27.3175 23.595 28.0845 22.3984 28.0845ZM24.2914 24.4127H8.75549C8.88995 20.2445 12.3227 16.8943 16.5234 16.8943C20.7242 16.8943 24.1569 20.2445 24.2914 24.4127Z" fill="white"/>
<path d="M0.917969 22.6609C1.15929 22.6609 1.39632 22.5626 1.567 22.392C1.73769 22.2202 1.83594 21.9842 1.83594 21.7418C1.83594 21.5005 1.73769 21.2646 1.567 21.0932C1.39632 20.9225 1.15929 20.825 0.917969 20.825C0.676643 20.825 0.439621 20.9225 0.268936 21.0932C0.0982513 21.2639 0 21.5005 0 21.7422C0 21.9846 0.0982513 22.2213 0.268936 22.392C0.439621 22.5626 0.676643 22.6609 0.917969 22.6609Z" fill="white"/>
</g>
<defs>
<clipPath id="clip0">
<rect width="47" height="47" fill="white"/>
</clipPath>
</defs>
</svg>
