<svg width="28" height="28" viewBox="0 0 28 28" fill="none" xmlns="http://www.w3.org/2000/svg">
<path fill-rule="evenodd" clip-rule="evenodd" d="M19.4394 27.3334H8.54602C3.83935 27.3334 0.666016 24.3054 0.666016 19.7867V8.22675C0.666016 3.70675 3.83935 0.666748 8.54602 0.666748H19.4394C24.1593 0.666748 27.3327 3.70675 27.3327 8.22675V19.7867C27.3327 24.3054 24.1593 27.3334 19.4394 27.3334ZM17.026 13.0001H8.55935C7.99935 13.0001 7.55935 13.4534 7.55935 14.0001C7.55935 14.5601 7.99935 15.0001 8.55935 15.0001H17.026L13.7193 18.2934C13.5327 18.4801 13.426 18.7467 13.426 19.0001C13.426 19.2521 13.5327 19.5067 13.7193 19.7067C14.106 20.0934 14.746 20.0934 15.1327 19.7067L20.1593 14.7067C20.5327 14.3334 20.5327 13.6667 20.1593 13.2934L15.1327 8.29341C14.746 7.90675 14.106 7.90675 13.7193 8.29341C13.3327 8.69341 13.3327 9.32008 13.7193 9.72008L17.026 13.0001Z" fill="white"/>
</svg>
