<svg width="32" height="32" viewBox="0 0 32 32" fill="none" xmlns="http://www.w3.org/2000/svg">
<rect width="32" height="32" rx="16" fill="#9B2922"/>
<g clip-path="url(#clip0)">
<path d="M21.4874 10.5424C20.5825 9.63751 19.3794 9.13916 18.0997 9.13916C16.82 9.13916 15.6168 9.63751 14.712 10.5424C12.0947 13.1596 10.3623 15.692 9.56267 18.0692C8.95847 19.8655 9.11906 20.9329 9.15741 21.1286C9.31536 21.9354 9.4172 22.0703 9.68835 22.3414C10.0224 22.6754 10.4677 22.8594 10.9421 22.8594C11.4166 22.8594 11.8619 22.6754 12.1959 22.3414C15.4188 19.1185 17.237 18.9131 18.6981 18.7479C19.6537 18.6399 20.2304 18.5747 21.4874 17.3178C22.3923 16.4129 22.8906 15.2098 22.8906 13.9301C22.8906 12.6503 22.3923 11.4473 21.4874 10.5424ZM20.3472 15.3362C19.9346 15.7488 19.386 15.976 18.8025 15.976C18.2191 15.976 17.6705 15.7488 17.2579 15.3362C16.4062 14.4845 16.4062 13.0987 17.2579 12.247C17.6705 11.8344 18.2191 11.6071 18.8025 11.6071C19.3861 11.6071 19.9346 11.8344 20.3472 12.247C20.7597 12.6595 20.987 13.2081 20.987 13.7916C20.987 14.3751 20.7597 14.9236 20.3472 15.3362Z" fill="white"/>
<path d="M22.979 9.05105C21.6757 7.74777 19.9429 7.03003 18.0998 7.03003C16.2567 7.03003 14.5239 7.74777 13.2206 9.05105C10.3712 11.9005 8.46785 14.7084 7.56362 17.3969C6.82995 19.5781 6.98628 21.0167 7.08756 21.534C7.27964 22.5151 7.50396 23.14 8.19703 23.833C8.93027 24.5663 9.90524 24.9702 10.9423 24.9702C11.9793 24.9702 12.9542 24.5663 13.6875 23.833C16.3887 21.1318 17.6832 20.9855 18.9351 20.844C20.0488 20.7181 21.2004 20.588 22.979 18.8094C24.2822 17.5061 25 15.7733 25 13.9302C25 12.0871 24.2822 10.3543 22.979 9.05105ZM22.2332 18.0637C20.7155 19.5814 19.8775 19.6761 18.8166 19.7961C17.4513 19.9503 15.9038 20.1253 12.9418 23.0873C11.8392 24.1898 10.0453 24.1898 8.94275 23.0873C8.47214 22.6167 8.30351 22.2557 8.12257 21.3313C8.05613 20.9921 7.89164 19.7299 8.56323 17.7331C9.41512 15.2003 11.233 12.5301 13.9664 9.79677C15.0704 8.69269 16.5384 8.08466 18.0998 8.08466C19.6612 8.08466 21.1292 8.69269 22.2332 9.79677C23.3373 10.9009 23.9454 12.3688 23.9454 13.9302C23.9454 15.4916 23.3373 16.9596 22.2332 18.0637Z" fill="white"/>
<path d="M18.8012 12.6619C18.4994 12.6619 18.2157 12.7794 18.0022 12.9928C17.5618 13.4333 17.5618 14.1501 18.0022 14.5906C18.2156 14.804 18.4994 14.9215 18.8012 14.9215C19.103 14.9215 19.3866 14.804 19.6001 14.5906C19.8135 14.3772 19.931 14.0935 19.931 13.7917C19.931 13.49 19.8135 13.2062 19.6001 12.9928C19.3866 12.7794 19.103 12.6619 18.8012 12.6619Z" fill="white"/>
</g>
<defs>
<clipPath id="clip0">
<rect width="18" height="18" fill="white" transform="translate(7 7)"/>
</clipPath>
</defs>
</svg>
