<svg width="16" height="16" viewBox="0 0 16 16" fill="none" xmlns="http://www.w3.org/2000/svg">
<g opacity="0.75">
<path d="M15.2944 4.50806C15.2584 3.69333 15.1267 3.13322 14.9379 2.64787C14.7432 2.13269 14.4436 1.67145 14.051 1.28802C13.6675 0.898616 13.2032 0.596035 12.6938 0.404377C12.2056 0.215644 11.6483 0.0838942 10.8334 0.047973C10.0125 0.00900955 9.75184 0 7.66965 0C5.58746 0 5.32684 0.00900955 4.50892 0.0449308C3.69404 0.080852 3.13382 0.212719 2.6485 0.401335C2.1331 0.596035 1.67177 0.895574 1.28826 1.28802C0.898787 1.67145 0.596266 2.13573 0.404454 2.64495C0.215686 3.13322 0.0839102 3.69029 0.0479821 4.50501C0.00901127 5.32582 0 5.58639 0 7.66819C0 9.74998 0.00901127 10.0106 0.0449394 10.8283C0.0808675 11.643 0.21276 12.2032 0.401529 12.6885C0.596266 13.2037 0.898787 13.6649 1.28826 14.0484C1.67177 14.4378 2.13614 14.7403 2.64545 14.932C3.13382 15.1207 3.691 15.2525 4.50599 15.2884C5.32379 15.3244 5.58453 15.3333 7.66673 15.3333C9.74892 15.3333 10.0095 15.3244 10.8275 15.2884C11.6423 15.2525 12.2026 15.1207 12.6879 14.932C13.7186 14.5336 14.5334 13.7189 14.9319 12.6885C15.1206 12.2002 15.2525 11.643 15.2884 10.8283C15.3243 10.0106 15.3333 9.74998 15.3333 7.66819C15.3333 5.58639 15.3303 5.32582 15.2944 4.50806ZM13.9133 10.7684C13.8803 11.5173 13.7545 11.9216 13.6496 12.1912C13.3919 12.8592 12.8617 13.3894 12.1935 13.647C11.9239 13.7519 11.5165 13.8776 10.7705 13.9105C9.96156 13.9466 9.71896 13.9555 7.67269 13.9555C5.62643 13.9555 5.38079 13.9466 4.5748 13.9105C3.82581 13.8776 3.42136 13.7519 3.15172 13.647C2.81924 13.5242 2.5166 13.3295 2.27096 13.0749C2.0163 12.8262 1.82157 12.5267 1.69868 12.1943C1.59383 11.9247 1.46802 11.5173 1.43513 10.7715C1.39909 9.9627 1.39019 9.72003 1.39019 7.67415C1.39019 5.62828 1.39909 5.38268 1.43513 4.57697C1.46802 3.82813 1.59383 3.42375 1.69868 3.15416C1.82157 2.82163 2.0163 2.51917 2.274 2.27345C2.52257 2.01884 2.82217 1.82414 3.15477 1.7014C3.4244 1.59656 3.8319 1.47078 4.57785 1.43779C5.38675 1.40186 5.62947 1.39285 7.67562 1.39285C9.72493 1.39285 9.96753 1.40186 10.7735 1.43779C11.5225 1.47078 11.927 1.59656 12.1966 1.7014C12.5291 1.82414 12.8317 2.01884 13.0774 2.27345C13.332 2.52209 13.5267 2.82163 13.6496 3.15416C13.7545 3.42375 13.8803 3.83105 13.9133 4.57697C13.9492 5.38573 13.9582 5.62828 13.9582 7.67415C13.9582 9.72003 13.9492 9.95966 13.9133 10.7684Z" fill="#171717"/>
<path d="M7.66965 3.72926C5.49466 3.72926 3.72997 5.49349 3.72997 7.66819C3.72997 9.84288 5.49466 11.6071 7.66965 11.6071C9.84476 11.6071 11.6093 9.84288 11.6093 7.66819C11.6093 5.49349 9.84476 3.72926 7.66965 3.72926ZM7.66965 10.2233C6.25863 10.2233 5.11408 9.07906 5.11408 7.66819C5.11408 6.25731 6.25863 5.1131 7.66965 5.1131C9.08079 5.1131 10.2252 6.25731 10.2252 7.66819C10.2252 9.07906 9.08079 10.2233 7.66965 10.2233Z" fill="#171717"/>
<path d="M12.685 3.57352C12.685 4.08133 12.2731 4.49308 11.7651 4.49308C11.2572 4.49308 10.8454 4.08133 10.8454 3.57352C10.8454 3.06559 11.2572 2.65396 11.7651 2.65396C12.2731 2.65396 12.685 3.06559 12.685 3.57352Z" fill="#171717"/>
</g>
</svg>
