<svg width="33" height="32" viewBox="0 0 32 32" fill="none" xmlns="http://www.w3.org/2000/svg">
<circle cx="16" cy="16" r="16" fill="#F27474"/>
<g clip-path="url(#clip0)">
<path fill-rule="evenodd" clip-rule="evenodd" d="M12.8214 7.7995C13.7012 7.759 13.9817 7.75 16.2227 7.75C18.4637 7.75 18.7442 7.75975 19.6232 7.7995C20.5022 7.83925 21.1022 7.9795 21.6272 8.18275C22.1769 8.3905 22.6757 8.71525 23.0882 9.13525C23.5082 9.547 23.8322 10.045 24.0392 10.5955C24.2432 11.1205 24.3827 11.7205 24.4232 12.598C24.4637 13.4792 24.4727 13.7597 24.4727 16C24.4727 18.241 24.4629 18.5215 24.4232 19.4012C24.3834 20.2787 24.2432 20.8787 24.0392 21.4037C23.8322 21.9543 23.5076 22.4531 23.0882 22.8655C22.6757 23.2855 22.1769 23.6095 21.6272 23.8165C21.1022 24.0205 20.5022 24.16 19.6247 24.2005C18.7442 24.241 18.4637 24.25 16.2227 24.25C13.9817 24.25 13.7012 24.2402 12.8214 24.2005C11.9439 24.1607 11.3439 24.0205 10.8189 23.8165C10.2683 23.6095 9.76952 23.2849 9.35716 22.8655C8.93744 22.4535 8.61264 21.9549 8.40541 21.4045C8.20216 20.8795 8.06266 20.2795 8.02216 19.402C7.98166 18.5207 7.97266 18.2402 7.97266 16C7.97266 13.759 7.98241 13.4785 8.02216 12.5995C8.06191 11.7205 8.20216 11.1205 8.40541 10.5955C8.61295 10.0451 8.938 9.54648 9.35791 9.1345C9.76969 8.71488 10.268 8.39008 10.8182 8.18275C11.3432 7.9795 11.9432 7.84 12.8207 7.7995H12.8214ZM19.5564 9.2845C18.6864 9.24475 18.4254 9.2365 16.2227 9.2365C14.0199 9.2365 13.7589 9.24475 12.8889 9.2845C12.0842 9.32125 11.6477 9.4555 11.3567 9.56875C10.9719 9.71875 10.6967 9.8965 10.4079 10.1853C10.1342 10.4515 9.92354 10.7757 9.79141 11.134C9.67816 11.425 9.54391 11.8615 9.50716 12.6662C9.46741 13.5362 9.45916 13.7972 9.45916 16C9.45916 18.2028 9.46741 18.4637 9.50716 19.3337C9.54391 20.1385 9.67816 20.575 9.79141 20.866C9.92341 21.2238 10.1342 21.5485 10.4079 21.8148C10.6742 22.0885 10.9989 22.2993 11.3567 22.4313C11.6477 22.5445 12.0842 22.6788 12.8889 22.7155C13.7589 22.7552 14.0192 22.7635 16.2227 22.7635C18.4262 22.7635 18.6864 22.7552 19.5564 22.7155C20.3612 22.6788 20.7977 22.5445 21.0887 22.4313C21.4734 22.2813 21.7487 22.1035 22.0374 21.8148C22.3112 21.5485 22.5219 21.2238 22.6539 20.866C22.7672 20.575 22.9014 20.1385 22.9382 19.3337C22.9779 18.4637 22.9862 18.2028 22.9862 16C22.9862 13.7972 22.9779 13.5362 22.9382 12.6662C22.9014 11.8615 22.7672 11.425 22.6539 11.134C22.5039 10.7492 22.3262 10.474 22.0374 10.1853C21.7711 9.91155 21.4469 9.70091 21.0887 9.56875C20.7977 9.4555 20.3612 9.32125 19.5564 9.2845ZM15.1689 18.5433C15.7574 18.7882 16.4127 18.8213 17.0229 18.6368C17.633 18.4523 18.1602 18.0617 18.5144 17.5317C18.8685 17.0017 19.0277 16.3652 18.9647 15.7308C18.9017 15.0965 18.6204 14.5037 18.1689 14.0538C17.8811 13.7661 17.5331 13.5459 17.1499 13.4089C16.7667 13.2719 16.358 13.2215 15.953 13.2615C15.5481 13.3014 15.157 13.4306 14.808 13.6398C14.459 13.8491 14.1607 14.1331 13.9346 14.4714C13.7086 14.8097 13.5603 15.194 13.5005 15.5965C13.4408 15.999 13.471 16.4097 13.5891 16.7991C13.7071 17.1886 13.91 17.547 14.1832 17.8485C14.4564 18.1501 14.793 18.3874 15.1689 18.5433ZM13.2242 13.0015C13.6179 12.6077 14.0854 12.2954 14.5999 12.0823C15.1144 11.8692 15.6658 11.7595 16.2227 11.7595C16.7795 11.7595 17.3309 11.8692 17.8454 12.0823C18.3599 12.2954 18.8274 12.6077 19.2212 13.0015C19.6149 13.3953 19.9273 13.8627 20.1404 14.3772C20.3535 14.8917 20.4632 15.4431 20.4632 16C20.4632 16.5569 20.3535 17.1083 20.1404 17.6228C19.9273 18.1373 19.6149 18.6047 19.2212 18.9985C18.4259 19.7938 17.3473 20.2405 16.2227 20.2405C15.098 20.2405 14.0194 19.7938 13.2242 18.9985C12.4289 18.2032 11.9821 17.1247 11.9821 16C11.9821 14.8753 12.4289 13.7968 13.2242 13.0015ZM21.4037 12.391C21.5012 12.299 21.5794 12.1883 21.6334 12.0655C21.6874 11.9427 21.7163 11.8103 21.7182 11.6762C21.7202 11.5421 21.6952 11.4089 21.6448 11.2846C21.5943 11.1603 21.5195 11.0474 21.4246 10.9525C21.3298 10.8577 21.2169 10.7828 21.0925 10.7324C20.9682 10.682 20.8351 10.657 20.701 10.6589C20.5668 10.6609 20.4345 10.6897 20.3117 10.7438C20.1889 10.7978 20.0782 10.8759 19.9862 10.9735C19.8071 11.1633 19.7091 11.4153 19.7129 11.6762C19.7167 11.9371 19.8221 12.1862 20.0065 12.3706C20.191 12.5551 20.4401 12.6604 20.701 12.6642C20.9618 12.668 21.2139 12.57 21.4037 12.391Z" fill="white"/>
</g>
<defs>
<clipPath id="clip0">
<rect width="18" height="18" fill="white" transform="translate(7.22266 7)"/>
</clipPath>
</defs>
</svg>
