<svg width="38" height="38" viewBox="0 0 38 38" fill="none" xmlns="http://www.w3.org/2000/svg">
<path d="M27.7355 19.879C27.7207 17.3481 28.8674 15.4407 31.183 14.0343C29.8879 12.1788 27.9285 11.1583 25.3457 10.9616C22.9002 10.7687 20.2246 12.3866 19.2449 12.3866C18.2096 12.3866 15.842 11.0284 13.9791 11.0284C10.1346 11.0878 6.04883 14.0937 6.04883 20.2093C6.04883 22.0165 6.3791 23.8831 7.03965 25.8054C7.92285 28.3362 11.1068 34.5372 14.4281 34.437C16.1648 34.3962 17.3932 33.205 19.6531 33.205C21.8463 33.205 22.9818 34.437 24.9189 34.437C28.2699 34.3888 31.1496 28.7519 31.9883 26.2136C27.4943 24.0946 27.7355 20.0089 27.7355 19.879ZM23.8354 8.56064C25.7168 6.32666 25.5461 4.29307 25.4904 3.56201C23.8279 3.6585 21.9057 4.69385 20.8109 5.9667C19.6049 7.33232 18.8961 9.0208 19.0482 10.9245C20.8443 11.0618 22.4846 10.1378 23.8354 8.56064Z" fill="#252A2F"/>
</svg>
