<svg width="206" height="29" viewBox="0 0 206 29" fill="none" xmlns="http://www.w3.org/2000/svg">
<path d="M129.983 27.5981C131.702 26.0502 129.897 25.7582 129.324 25.1741C129.296 24.7652 129.525 24.8236 129.64 24.8236C132.189 24.9404 132.045 24.9112 132.647 22.4288C133.707 18.1357 133.191 14.0762 131.387 10.1627C130.928 9.14055 131.215 8.93611 132.131 8.96532C133.22 8.99452 134.136 8.46883 135.11 8.00156C136.055 7.53428 136.628 7.62189 136.829 9.08213C137.516 14.2514 136.141 19.1286 135.082 24.0935C134.967 24.59 134.738 25.1156 135.54 25.0864C138.519 24.9404 141.469 24.5315 143.932 22.604C147.655 19.6835 147.942 14.5727 144.648 10.7468C141.44 7.03779 137.316 6.07403 132.676 6.80415C132.16 6.89177 131.644 6.97938 131.129 7.0962C130.642 7.21302 130.413 7.15461 130.556 6.54131C130.785 5.57755 130.184 5.08106 129.496 4.61378C129.095 4.35094 128.694 4.08809 128.379 3.73763C127.52 2.77387 127.721 2.13136 128.981 1.98534C134.337 1.37203 139.55 1.60568 144.304 4.64299C148.343 7.21302 150.233 11.0389 150.033 15.7993C149.804 21.2314 146.51 24.5023 141.841 26.4591C138.06 28.0069 134.194 28.3574 129.983 27.5981Z" fill="#F27474"/>
<path d="M110.106 9.98748C109.991 17.0843 108.559 23.2757 104.177 28.3866C104.034 28.3282 103.862 28.2698 103.718 28.2406C104.291 25.4077 105.065 22.604 105.38 19.7711C105.895 15.3028 106.039 10.8344 103.403 6.83335C103.318 6.68733 103.26 6.51209 103.146 6.42448C101.742 5.25628 101.341 4.32172 103.489 3.53319C104.205 3.27035 104.091 2.30659 104.205 1.66408C104.435 0.320651 105.065 0.291449 106.124 0.700318C107.585 1.28442 108.244 2.51102 108.874 3.85445C110.621 7.50506 113.543 10.3963 115.204 14.1638C115.977 10.8928 116.493 7.65109 117.753 4.64298C118.068 3.88366 118.441 3.18273 119.013 2.62784C119.414 2.24817 119.873 1.95613 120.445 2.21897C120.961 2.45261 121.076 3.06592 120.99 3.47479C120.56 5.43152 121.19 6.5121 123.625 6.48289C120.245 9.37418 119.013 12.8788 118.899 16.9091C118.842 19.5667 119.128 22.1951 119.386 24.8236C119.414 25.2033 120.274 26.4299 118.67 25.8166C118.011 25.5829 118.097 26.7219 117.266 27.16C114.918 21.4942 112.598 15.9161 110.106 9.98748Z" fill="#F27474"/>
<path d="M53.8813 14.7187C55.5712 15.1568 55.829 14.1638 55.8863 13.054C55.9722 11.0973 55.5139 9.22816 54.7692 7.41746C57.1465 6.95018 57.8053 7.35904 58.2063 9.84146C58.4354 11.1557 58.6646 12.4991 58.5213 13.8717C58.4354 14.8647 58.7791 15.2444 59.7816 15.0983C62.4167 14.6895 64.4789 13.4045 65.7678 11.0681C67.2572 8.35201 65.3382 5.40231 61.9584 5.11026C59.6097 4.90582 57.3184 5.3147 55.0843 6.07403C54.6547 6.22005 54.0818 6.62892 53.8241 6.01561C53.1939 4.55537 52.0482 4.7598 50.8739 4.84742C50.6161 4.87662 50.3584 4.81822 49.9287 4.78901C50.5589 3.59161 51.5327 3.0075 52.5638 2.48182C56.0581 0.758724 59.8102 0.379064 63.5623 0.933958C69.6917 1.81011 71.8972 8.3228 67.8873 13.3168C67.0567 14.339 66.1115 15.186 64.9658 15.7701C63.9347 16.2957 63.7915 16.9675 64.0493 17.9896C65.0231 21.6987 66.713 24.9988 69.4912 27.6565C69.6058 27.7441 69.6345 27.8901 69.9209 28.3866C67.83 27.6857 65.9683 27.6857 64.1065 27.8025C63.3619 27.8609 63.1327 27.1308 62.8749 26.5175C61.7579 23.8306 61.1851 20.9685 60.7268 18.1065C60.6122 17.4639 60.8986 16.7046 59.6957 16.763C58.6646 16.8214 58.2349 17.2303 58.2349 18.1941C58.2063 20.7933 57.6621 23.3341 57.2324 25.875C57.1465 26.4007 57.1752 27.0432 56.3446 26.7803C55.3707 26.4883 54.4828 26.7803 53.5949 27.1892C53.2226 27.3352 52.8502 27.6273 52.4206 27.2476C51.9623 26.8387 52.2487 26.4591 52.3919 26.0794C53.1653 23.6846 53.9386 21.2606 54.712 18.8658C55.1989 17.3179 55.3134 15.9453 53.8813 14.7187Z" fill="#F27474"/>
<path d="M33.8892 27.1308C33.8605 26.5759 34.9489 26.4007 34.0038 25.7874C30.0512 23.3049 28.4186 19.2747 27.4161 14.9815C26.5568 11.1849 26.8146 7.35904 28.5904 3.79604C29.1919 2.56943 32.6576 2.10216 33.5168 3.15353C34.147 3.91286 33.8033 4.81821 33.4882 5.60675C32.1134 8.96531 31.5692 12.4407 31.8556 16.0329C32.0847 19.0702 33.0872 21.7863 35.2926 23.9766C36.2378 24.9112 36.9539 24.8236 37.7845 23.9182C39.8181 21.6987 40.7346 18.9826 41.0211 16.0329C41.3648 12.4115 40.6487 8.96531 39.4744 5.57754C39.1593 4.70139 38.8729 4.05889 40.305 4.29252C41.1356 4.43855 41.7658 3.91286 42.2813 3.18274C43.2551 1.81011 43.6561 1.83931 44.4008 3.35796C45.7756 6.13243 45.747 9.11134 45.4892 12.061C45.0882 16.3542 43.9712 20.4136 41.1643 23.8014C39.2453 26.021 36.8966 27.306 33.8892 27.1308Z" fill="#F27474"/>
<path d="M15.4437 28.9123C14.0403 27.7733 14.0403 26.2254 13.6965 24.882C13.4961 24.0643 13.2669 23.4802 12.3217 23.4802C11.4052 23.4802 11.3765 22.9253 11.6343 22.1367C13.0091 17.6392 13.4101 13.0832 12.7514 8.38122C12.5795 7.21302 12.3504 7.00859 11.3193 7.56348C9.02789 8.79009 7.3953 10.63 6.42147 13.054C6.04912 13.9594 5.73406 14.8647 5.33307 15.7409C5.13257 16.2373 4.81751 16.5878 4.24467 16.1497C3.35677 15.4488 2.49751 15.7701 1.58096 16.1497C0.206141 16.7046 -0.166205 16.4126 0.0629311 14.9231C0.521204 11.915 2.01059 9.491 4.27331 7.53427C5.90591 6.13244 7.68172 5.02264 9.68666 4.23411C11.6057 3.50399 11.6057 3.50399 10.7178 1.66408C10.5746 1.37203 10.1736 1.13839 10.46 0.671115C10.9756 -0.146623 11.8921 -0.17583 12.4077 0.641908C13.6679 2.59864 14.2407 2.86148 16.5035 2.27739C18.623 1.72249 20.7138 1.66408 23.1771 2.30659C21.4299 2.9491 19.9405 3.38717 18.5371 4.02968C14.384 5.86959 14.8995 5.3439 15.902 9.37418C17.4487 15.6532 17.9069 21.9031 15.7301 28.1238C15.6442 28.3574 15.5583 28.5618 15.4437 28.9123Z" fill="#F27474"/>
<path d="M198.037 28.8539C196.891 27.9777 196.662 26.8971 196.49 25.7581C196.318 24.59 196.204 23.3925 194.542 23.3925C193.712 23.3925 194.027 22.75 194.17 22.1951C195.144 18.048 196.032 13.8717 195.574 9.54941C195.545 9.37418 195.545 9.22815 195.516 9.05292C195.173 6.95017 194.943 6.86255 193.139 7.88473C190.762 9.22815 189.616 11.5061 188.585 13.9009C188.298 14.5435 188.098 15.2152 187.812 15.8577C187.668 16.2081 187.439 16.617 187.01 16.2081C186.036 15.3028 185.033 15.7409 184.059 16.1205C183.028 16.5294 182.427 16.7046 182.656 15.0399C183.229 10.9512 185.377 8.11837 188.814 6.19084C189.788 5.63595 190.762 5.13947 191.764 4.64299C194.227 3.44558 194.227 3.44558 192.795 1.02157C194.399 -0.38027 194.457 -0.409471 195.516 1.37203C196.032 2.24818 196.605 2.51103 197.55 2.45262C200.156 2.27739 202.734 1.34283 205.484 2.30659C204.309 3.18274 202.935 3.29956 201.674 3.76684C197.55 5.3439 197.521 5.3439 198.438 9.63702C199.24 13.2876 199.984 16.9091 199.698 20.6765C199.498 23.3926 198.896 26.0794 198.037 28.8539Z" fill="#F27474"/>
<path d="M157.594 17.8144C158.453 18.749 159.255 19.7419 160.201 20.6181C162.549 22.8377 165.299 23.3341 168.278 22.2243C170.426 21.4358 171.514 19.7127 171.457 17.3763C171.457 16.8798 171.314 16.3834 171.4 15.9161C171.572 14.9815 171.686 13.8133 172.746 13.5505C173.92 13.2292 174.923 13.9302 175.524 14.9815C176.469 16.617 176.383 18.4277 176.011 20.18C174.579 26.6635 168.965 29.1751 163.237 25.9918C160.057 24.2103 158.196 21.4942 157.594 17.8144Z" fill="#F27474"/>
<path d="M175.61 11.2433C174.092 8.76087 172.144 7.32983 169.652 6.65812C165.299 5.48992 162.177 7.85552 162.177 12.4115C162.177 13.8425 162.349 15.332 160.573 15.8285C159.513 16.1205 158.339 15.0107 157.737 13.0832C156.792 9.95828 157.508 7.1254 159.656 4.73059C161.833 2.27738 164.669 1.37203 167.705 2.30659C171.572 3.47478 174.407 6.04481 175.725 10.1043C175.782 10.2503 175.811 10.3963 175.839 10.5716C175.839 10.6592 175.753 10.776 175.61 11.2433Z" fill="#F27474"/>
<path d="M95.2118 22.2536C94.553 21.6987 93.9229 21.1438 93.4646 20.4136C93.0064 19.6543 91.9753 18.7782 93.8656 18.5153C94.3239 18.4569 94.553 18.048 94.5817 17.5516C94.5817 16.8798 94.0661 16.9675 93.6938 16.9091C93.1209 16.8506 92.5481 16.8798 91.9466 16.8214C91.6602 16.7922 91.4024 16.6462 91.4024 16.3542C91.3738 15.9745 91.7175 16.0037 91.9753 15.9745C92.72 15.8869 93.4646 15.8869 94.1807 15.7117C94.8681 15.5656 95.2404 15.0107 95.2977 14.3098C95.3837 13.4629 94.639 13.4337 94.1234 13.2584C93.1496 12.9372 92.1185 13.054 91.116 13.1416C90.1708 13.2292 89.7698 12.908 89.3975 12.0026C88.2804 9.22815 87.9367 6.39528 88.1372 3.44558C88.1945 2.74466 88.1945 1.98533 87.3066 1.75169C86.3041 1.48885 86.3901 2.4234 86.1609 2.91989C85.7886 3.85444 85.4449 3.82525 84.9293 3.03671C84.2419 2.04375 83.3826 1.25521 82.0078 0.495881C82.2942 1.1968 82.4375 1.51806 82.5807 1.83931C84.156 5.60675 84.3851 9.43259 83.3254 13.3753C83.0103 14.5727 82.4375 15.332 81.1772 15.624C79.8883 15.9161 78.6281 16.4126 77.3678 16.8214C78.3989 17.0843 79.3441 16.9967 80.3179 16.9675C80.6903 16.9675 81.2918 16.763 81.3777 17.3471C81.435 17.9312 80.9194 18.1065 80.4039 18.1941C79.6592 18.3401 78.8858 18.4277 78.1984 18.9242C78.7426 19.4499 79.3155 19.041 79.8597 19.3623C78.7999 20.9977 78.7999 21.027 75.3629 22.4288C74.4463 22.8085 73.9881 23.1297 75.0478 23.8306C75.7925 24.3271 76.0216 25.028 76.0216 25.9042C76.0216 27.6273 76.2221 27.6857 77.7974 27.0432C81.0913 25.7289 83.0962 23.1881 84.3278 19.9464C84.958 18.3109 86.2755 19.1286 87.278 18.8366C88.2518 18.5445 88.4236 19.3623 88.7101 19.9464C89.598 21.8447 90.3713 23.8014 91.5456 25.5245C92.1471 26.4007 92.7772 28.0653 93.6938 27.7149C94.6963 27.3352 94.553 25.6705 94.4385 24.4731C94.3812 23.9182 94.2953 23.3341 95.0113 23.1881C96.0138 23.0713 95.6987 22.6332 95.2118 22.2536ZM86.3041 12.2071C86.1323 12.8788 87.278 13.5213 86.4187 14.1638C86.2755 14.2514 85.8745 14.2514 85.8459 14.193C85.5594 13.4629 86.0463 12.8788 86.3041 12.2071ZM86.075 17.3763C85.7027 17.3471 85.1584 17.5516 85.2157 16.8214C85.273 15.9745 85.9318 16.0621 86.476 16.0329C86.9629 16.0037 87.4785 16.0037 87.4498 16.7046C87.4212 17.2303 87.0775 17.4055 86.075 17.3763Z" fill="#F27474"/>
</svg>
