<svg width="32" height="32" viewBox="0 0 32 32" fill="none" xmlns="http://www.w3.org/2000/svg">
<rect width="32" height="32" rx="16" fill="#D61919"/>
<g clip-path="url(#clip0)">
<path d="M7.10479 20.0955L7.24409 20.0287L7.41157 19.9497L7.51779 19.8997C7.53635 19.8908 7.55694 19.8817 7.5755 19.8721L7.62737 19.842C7.70442 19.797 7.78181 19.7525 7.85951 19.7086C7.94071 19.6634 8.03742 19.6048 8.13772 19.5448C8.23814 19.4845 8.34432 19.4227 8.45359 19.3498L8.62165 19.2424L8.708 19.1871L8.79501 19.1271C9.0296 18.9681 9.27542 18.7869 9.5275 18.5899L9.71752 18.4394C9.78127 18.3887 9.8441 18.3328 9.9083 18.2799C9.97209 18.2257 10.037 18.1741 10.1007 18.1169L10.2927 17.9455C10.3572 17.8893 10.4208 17.8289 10.4847 17.7689L10.6767 17.5886L10.8666 17.4002C10.8983 17.3687 10.9299 17.3373 10.9615 17.3058L11.0555 17.2083C11.3079 16.9535 11.5513 16.6765 11.791 16.403C11.9097 16.263 12.0276 16.125 12.1419 15.9816C12.2576 15.8423 12.3696 15.6967 12.4808 15.5565C12.5905 15.4112 12.6993 15.2713 12.804 15.1263C12.91 14.9851 13.0126 14.8411 13.113 14.7009C13.1632 14.6309 13.2122 14.5588 13.2609 14.4892C13.3096 14.42 13.3574 14.3502 13.4046 14.28L13.5448 14.0747L13.6803 13.8715C13.7694 13.7385 13.855 13.6052 13.9378 13.4779C14.0206 13.3484 14.0993 13.2244 14.1786 13.1049C14.336 12.8689 14.4909 12.6551 14.637 12.4726C14.7057 12.386 14.7764 12.301 14.8491 12.2178C14.9175 12.1388 14.983 12.069 15.0424 12.0061C15.1649 11.878 15.2669 11.7836 15.3424 11.7178C15.4165 11.6532 15.4596 11.6222 15.4596 11.6222C17.2935 10.3012 19.8511 10.717 21.1721 12.551C22.2147 13.9984 22.1754 15.8966 21.2108 17.2818L21.1896 17.3103C21.1896 17.3103 21.1601 17.3525 21.0984 17.4249C21.038 17.4963 20.9407 17.6029 20.8095 17.7307C20.7418 17.7955 20.6666 17.8671 20.5818 17.942C20.4883 18.0246 20.3929 18.1051 20.2958 18.1834C20.0846 18.3533 19.8363 18.5371 19.5461 18.7269C19.257 18.9154 18.9296 19.1107 18.5824 19.3172C18.2361 19.5239 17.8594 19.7345 17.4668 19.9452C17.0734 20.1563 16.6581 20.3646 16.231 20.5654C15.8017 20.7653 15.3603 20.9571 14.9107 21.1332C14.7993 21.1781 14.6847 21.2195 14.5723 21.2623C14.4597 21.3049 14.3471 21.3464 14.2324 21.3853L13.892 21.5022L13.5503 21.6111L13.3809 21.6642L13.2099 21.7131L12.8718 21.8082L12.5347 21.894L12.3685 21.9355C12.3134 21.949 12.257 21.9603 12.2018 21.9727L11.8734 22.0436C11.7654 22.067 11.6558 22.0852 11.5494 22.1054C11.4425 22.1248 11.3378 22.1447 11.2327 22.1608L10.9219 22.2066C10.5143 22.2661 10.1254 22.2982 9.76954 22.3207C9.41284 22.341 9.08811 22.35 8.79959 22.3421C8.65568 22.3398 8.52456 22.3385 8.39191 22.3319C8.27407 22.3273 8.15628 22.3214 8.03857 22.3143L7.96145 22.3098C7.93808 22.3076 7.91768 22.3044 7.89668 22.3019L7.78022 22.2871L7.59654 22.2634L7.44346 22.2427C6.8225 22.1586 6.38723 21.5871 6.47134 20.9661C6.52404 20.5762 6.7759 20.2563 7.10479 20.0955Z" fill="white"/>
<path d="M17.2325 13.4669L17.0974 13.5485L17.0262 13.5914C17.0117 13.5999 17.0032 13.6061 16.993 13.6131L16.9613 13.6346L16.8909 13.6815L16.8522 13.7067L16.809 13.7398C16.7505 13.7865 16.684 13.8318 16.6184 13.8911L16.5154 13.979C16.4805 14.0096 16.4459 14.0437 16.41 14.0769C16.3375 14.1422 16.2658 14.2174 16.1915 14.2918C16.1544 14.3291 16.1181 14.3697 16.081 14.409C16.044 14.4485 16.0067 14.488 15.9701 14.5298L15.8597 14.6534L15.7503 14.7797L15.5356 15.0302C15.4648 15.1131 15.3967 15.193 15.3287 15.2702C15.2631 15.3466 15.195 15.42 15.1343 15.487C15.0761 15.5489 15.017 15.6098 14.9569 15.6698C14.8992 15.7237 14.851 15.7705 14.8077 15.8084L14.6653 15.9254C14.5954 15.9829 14.5065 16.0122 14.4162 16.0073C14.3258 16.0025 14.2405 15.9639 14.1772 15.8992C14.114 15.8345 14.0773 15.7484 14.0744 15.6579C14.0715 15.5675 14.1027 15.4793 14.1618 15.4107L14.1886 15.3797L14.2742 15.2801C14.3012 15.247 14.3334 15.2024 14.3705 15.1543C14.412 15.0958 14.4527 15.0368 14.4925 14.9771C14.5364 14.9083 14.5841 14.8362 14.634 14.7537C14.6839 14.6734 14.7368 14.5852 14.7916 14.4942L14.9638 14.2086L15.0545 14.0601L15.1495 13.9095C15.1807 13.8591 15.2142 13.8089 15.2475 13.7587C15.2811 13.7086 15.3129 13.6584 15.3477 13.6091C15.4175 13.5106 15.4842 13.4127 15.557 13.3201C15.5928 13.2736 15.6267 13.2273 15.6626 13.1831L15.7702 13.0539C15.8383 12.9689 15.9137 12.8936 15.979 12.8216L16.0282 12.7692L16.0821 12.7177L16.1826 12.623L16.2288 12.5799C16.2437 12.5662 16.259 12.5518 16.2694 12.5433L16.3325 12.4892L16.4523 12.3865C16.7327 12.146 17.1549 12.1784 17.3953 12.4588C17.6356 12.7391 17.6033 13.1613 17.323 13.4017C17.2958 13.425 17.2669 13.4461 17.2364 13.4647L17.2325 13.4669Z" fill="white"/>
<path d="M25.4238 12.0855L25.413 12.073L25.2167 11.8459C25.1853 11.8099 25.1457 11.7729 25.1052 11.7311C25.0635 11.6901 25.0208 11.6442 24.9707 11.5983L24.8059 11.4557C24.7911 11.4434 24.7772 11.4302 24.7612 11.4182L24.7123 11.3823L24.6111 11.3083C24.4721 11.2088 24.3081 11.1141 24.1247 11.0309C24.1024 11.0194 24.0786 11.0103 24.0543 11.0016L23.9815 10.9747L23.9078 10.9477C23.8831 10.938 23.8578 10.9299 23.832 10.9237L23.6748 10.8829C23.6616 10.8797 23.6484 10.876 23.635 10.8731L23.5942 10.8664L23.5121 10.8534C23.4571 10.8448 23.4017 10.8353 23.3453 10.8337C23.289 10.8305 23.2323 10.8263 23.1754 10.8248L23.0045 10.8303L22.9616 10.832L22.9191 10.8369L22.8341 10.8471C22.6077 10.8765 22.3843 10.9322 22.1764 11.0121C21.968 11.0911 21.7681 11.184 21.5846 11.2905C21.4846 11.348 21.3861 11.4082 21.2894 11.4712C20.598 10.848 19.6328 10.6612 18.7738 10.9414C18.7716 10.9507 18.774 10.958 18.7709 10.9675C18.69 11.2154 18.6233 11.4736 19.6955 12.6403C20.7677 13.8071 21.7486 14.824 21.9227 14.3859C22.2105 13.6619 22.1994 12.8356 21.8168 12.136C21.878 12.1061 21.9399 12.0773 22.0023 12.0497C22.1633 11.9778 22.3276 11.9243 22.4873 11.8836C22.6474 11.8417 22.803 11.8252 22.9472 11.8247L23.0009 11.8249L23.0275 11.8248L23.0534 11.8277C23.0878 11.8315 23.1217 11.8348 23.1552 11.8375L23.252 11.8566C23.2841 11.8607 23.3144 11.8716 23.3445 11.8809L23.3892 11.8942L23.4113 11.9004C23.4186 11.9032 23.4257 11.9066 23.4328 11.9096C23.4612 11.9219 23.4891 11.9335 23.5168 11.9444C23.5237 11.9473 23.5307 11.9495 23.5374 11.9528L23.5573 11.9639L23.5967 11.9854L23.6356 12.0058C23.6485 12.0121 23.6613 12.0187 23.6735 12.028C23.7726 12.0916 23.8636 12.1598 23.9441 12.2354L24.003 12.2912L24.0315 12.3176C24.0409 12.3264 24.0494 12.3375 24.0583 12.347L24.158 12.4572C24.1888 12.493 24.2159 12.5312 24.2419 12.5635C24.2674 12.5972 24.292 12.625 24.3123 12.6549L24.4393 12.8417C24.4526 12.8612 24.4673 12.8805 24.483 12.8987C24.7075 13.1584 25.1001 13.187 25.3599 12.9625C25.6198 12.7379 25.6484 12.3453 25.4238 12.0855ZM21.4211 11.5983C21.4254 11.6028 21.4296 11.6076 21.4339 11.6121C21.4296 11.6075 21.4254 11.6028 21.4211 11.5983ZM21.6857 11.9228C21.6895 11.9284 21.6933 11.9339 21.6971 11.9395C21.6933 11.9339 21.6895 11.9283 21.6857 11.9228ZM21.6163 11.8265C21.6219 11.8339 21.6273 11.8413 21.6328 11.8488C21.6273 11.8414 21.6219 11.8339 21.6163 11.8265Z" fill="white"/>
</g>
<defs>
<clipPath id="clip0">
<rect width="19.5556" height="19.5556" fill="white" transform="translate(6.22266 6.22217)"/>
</clipPath>
</defs>
</svg>
