<svg width="35" height="32" viewBox="0 0 35 32" fill="none" xmlns="http://www.w3.org/2000/svg">
<mask id="path-1-inside-1" fill="white">
<path fill-rule="evenodd" clip-rule="evenodd" d="M3.83672 3.34782L3.70146 3.33367C3.20921 3.31568 2.76717 3.66379 2.68083 4.16263L2.66668 4.29789C2.64869 4.79014 2.99679 5.23218 3.49564 5.31852L5.50765 5.6665L6.72702 20.1941L6.75225 20.4125C6.99758 22.0691 8.42245 23.3145 10.1195 23.3145H24.6688L24.888 23.3075C26.4831 23.2057 27.8057 21.9994 28.0385 20.3969L29.3039 11.6524L29.3257 11.4515C29.4422 9.85276 28.1756 8.46517 26.5448 8.46517H7.74898L7.43601 4.72953L7.41242 4.58172C7.32116 4.19729 7.00865 3.89681 6.61005 3.82782L3.83672 3.34782ZM9.96469 21.3063C9.30433 21.2339 8.77621 20.7036 8.71981 20.0275L7.91674 10.4653H26.5446L26.6621 10.474C27.0831 10.5366 27.3873 10.9303 27.3242 11.3662L26.0589 20.1101L26.0272 20.2665C25.8667 20.8779 25.3128 21.3147 24.6686 21.3147H10.1193L9.96469 21.3063ZM7.87727 27.4469C7.87727 26.3321 8.78084 25.4269 9.89594 25.4269C11.0109 25.4269 11.9159 26.3319 11.9159 27.4469C11.9159 28.562 11.0107 29.4655 9.89594 29.4655C8.78099 29.4655 7.87727 28.5618 7.87727 27.4469ZM22.8793 27.4469C22.8793 26.3319 23.7844 25.4269 24.8993 25.4269C26.0143 25.4269 26.9193 26.3319 26.9193 27.4469C26.9193 28.562 26.0141 29.4655 24.8993 29.4655C23.7845 29.4655 22.8793 28.562 22.8793 27.4469ZM23.5306 14.3931C23.5306 13.8408 23.0829 13.3931 22.5306 13.3931H18.8333L18.6976 13.4022C18.2095 13.4684 17.8333 13.8868 17.8333 14.3931C17.8333 14.9454 18.281 15.3931 18.8333 15.3931H22.5306L22.6663 15.384C23.1544 15.3178 23.5306 14.8994 23.5306 14.3931Z"/>
</mask>
<path fill-rule="evenodd" clip-rule="evenodd" d="M3.83672 3.34782L3.70146 3.33367C3.20921 3.31568 2.76717 3.66379 2.68083 4.16263L2.66668 4.29789C2.64869 4.79014 2.99679 5.23218 3.49564 5.31852L5.50765 5.6665L6.72702 20.1941L6.75225 20.4125C6.99758 22.0691 8.42245 23.3145 10.1195 23.3145H24.6688L24.888 23.3075C26.4831 23.2057 27.8057 21.9994 28.0385 20.3969L29.3039 11.6524L29.3257 11.4515C29.4422 9.85276 28.1756 8.46517 26.5448 8.46517H7.74898L7.43601 4.72953L7.41242 4.58172C7.32116 4.19729 7.00865 3.89681 6.61005 3.82782L3.83672 3.34782ZM9.96469 21.3063C9.30433 21.2339 8.77621 20.7036 8.71981 20.0275L7.91674 10.4653H26.5446L26.6621 10.474C27.0831 10.5366 27.3873 10.9303 27.3242 11.3662L26.0589 20.1101L26.0272 20.2665C25.8667 20.8779 25.3128 21.3147 24.6686 21.3147H10.1193L9.96469 21.3063ZM7.87727 27.4469C7.87727 26.3321 8.78084 25.4269 9.89594 25.4269C11.0109 25.4269 11.9159 26.3319 11.9159 27.4469C11.9159 28.562 11.0107 29.4655 9.89594 29.4655C8.78099 29.4655 7.87727 28.5618 7.87727 27.4469ZM22.8793 27.4469C22.8793 26.3319 23.7844 25.4269 24.8993 25.4269C26.0143 25.4269 26.9193 26.3319 26.9193 27.4469C26.9193 28.562 26.0141 29.4655 24.8993 29.4655C23.7845 29.4655 22.8793 28.562 22.8793 27.4469ZM23.5306 14.3931C23.5306 13.8408 23.0829 13.3931 22.5306 13.3931H18.8333L18.6976 13.4022C18.2095 13.4684 17.8333 13.8868 17.8333 14.3931C17.8333 14.9454 18.281 15.3931 18.8333 15.3931H22.5306L22.6663 15.384C23.1544 15.3178 23.5306 14.8994 23.5306 14.3931Z" fill="#252A2F"/>
<path d="M3.70146 3.33367L3.73266 3.0353L3.72256 3.03425L3.71242 3.03387L3.70146 3.33367ZM3.83672 3.34782L3.88788 3.05222L3.87795 3.0505L3.86793 3.04945L3.83672 3.34782ZM2.68083 4.16263L2.38522 4.11147L2.3835 4.1214L2.38246 4.13142L2.68083 4.16263ZM2.66668 4.29789L2.36831 4.26669L2.36725 4.27679L2.36688 4.28693L2.66668 4.29789ZM3.49564 5.31852L3.44448 5.61413L3.44451 5.61413L3.49564 5.31852ZM5.50765 5.6665L5.80659 5.64141L5.7872 5.4104L5.55877 5.37089L5.50765 5.6665ZM6.72702 20.1941L6.42792 20.2193L6.429 20.2286L6.72702 20.1941ZM6.75225 20.4125L6.45408 20.4469L6.45549 20.4564L6.75225 20.4125ZM24.6688 23.3145V23.6147L24.6784 23.6144L24.6688 23.3145ZM24.888 23.3075L24.8975 23.6075L24.9071 23.6069L24.888 23.3075ZM28.0385 20.3969L28.3353 20.4401L28.3354 20.4399L28.0385 20.3969ZM29.3039 11.6524L29.601 11.6954L29.6021 11.6848L29.3039 11.6524ZM29.3257 11.4515L29.6241 11.484L29.6249 11.4733L29.3257 11.4515ZM7.74898 8.46517L7.45003 8.49022L7.47306 8.76517H7.74898V8.46517ZM7.43601 4.72953L7.73496 4.70448L7.73403 4.69332L7.73226 4.68225L7.43601 4.72953ZM7.41242 4.58172L7.70867 4.53445L7.7069 4.52336L7.70431 4.51243L7.41242 4.58172ZM6.61005 3.82782L6.55889 4.12343L6.61005 3.82782ZM8.71981 20.0275L9.01877 20.0026L9.01876 20.0024L8.71981 20.0275ZM9.96469 21.3063L9.93203 21.6045L9.94019 21.6054L9.94838 21.6058L9.96469 21.3063ZM7.91674 10.4653V10.1653H7.59049L7.61779 10.4904L7.91674 10.4653ZM26.5446 10.4653L26.5666 10.1661L26.5556 10.1653H26.5446V10.4653ZM26.6621 10.474L26.7062 10.1772L26.6952 10.1756L26.6841 10.1748L26.6621 10.474ZM27.3242 11.3662L27.6211 11.4092L27.6211 11.4091L27.3242 11.3662ZM26.0589 20.1101L26.3529 20.1698L26.3546 20.1615L26.3558 20.1531L26.0589 20.1101ZM26.0272 20.2665L26.3173 20.3426L26.3195 20.3344L26.3212 20.3262L26.0272 20.2665ZM10.1193 21.3147L10.103 21.6142L10.1111 21.6147H10.1193V21.3147ZM18.8333 13.3931V13.0931H18.8232L18.8132 13.0938L18.8333 13.3931ZM18.6976 13.4022L18.6775 13.1029L18.6673 13.1036L18.6573 13.105L18.6976 13.4022ZM22.5306 15.3931V15.6931H22.5407L22.5508 15.6924L22.5306 15.3931ZM22.6663 15.384L22.6865 15.6833L22.6966 15.6826L22.7067 15.6813L22.6663 15.384ZM3.67025 3.63205L3.80552 3.64619L3.86793 3.04945L3.73266 3.0353L3.67025 3.63205ZM2.97643 4.21379C3.03683 3.86484 3.34622 3.62089 3.6905 3.63347L3.71242 3.03387C3.07221 3.01047 2.49751 3.46273 2.38522 4.11147L2.97643 4.21379ZM2.96505 4.3291L2.9792 4.19383L2.38246 4.13142L2.36831 4.26669L2.96505 4.3291ZM3.5468 5.02292C3.19785 4.96252 2.9539 4.65313 2.96648 4.30885L2.36688 4.28693C2.34348 4.92714 2.79574 5.50185 3.44448 5.61413L3.5468 5.02292ZM5.55877 5.37089L3.54676 5.02291L3.44451 5.61413L5.45652 5.96212L5.55877 5.37089ZM7.02596 20.1691L5.80659 5.64141L5.2087 5.6916L6.42807 20.2192L7.02596 20.1691ZM7.05027 20.378L7.02503 20.1597L6.429 20.2286L6.45424 20.4469L7.05027 20.378ZM10.1195 23.0145C8.57196 23.0145 7.27268 21.8788 7.04902 20.3685L6.45549 20.4564C6.72249 22.2593 8.27293 23.6145 10.1195 23.6145V23.0145ZM24.6688 23.0145H10.1195V23.6145H24.6688V23.0145ZM24.8784 23.0077L24.6593 23.0147L24.6784 23.6144L24.8975 23.6074L24.8784 23.0077ZM27.7416 20.3538C27.5293 21.8153 26.3231 22.9153 24.8689 23.0081L24.9071 23.6069C26.6431 23.4961 28.0821 22.1834 28.3353 20.4401L27.7416 20.3538ZM29.007 11.6094L27.7415 20.354L28.3354 20.4399L29.6008 11.6954L29.007 11.6094ZM29.0275 11.4191L29.0056 11.62L29.6021 11.6848L29.6239 11.4839L29.0275 11.4191ZM26.5448 8.76517C27.9999 8.76517 29.1304 10.0034 29.0265 11.4297L29.6249 11.4733C29.7539 9.70216 28.3513 8.16517 26.5448 8.16517V8.76517ZM7.74898 8.76517H26.5448V8.16517H7.74898V8.76517ZM7.13706 4.75458L7.45003 8.49022L8.04793 8.44012L7.73496 4.70448L7.13706 4.75458ZM7.11617 4.629L7.13976 4.77681L7.73226 4.68225L7.70867 4.53445L7.11617 4.629ZM6.55889 4.12343C6.83779 4.1717 7.05667 4.38201 7.12053 4.65101L7.70431 4.51243C7.58565 4.01258 7.17951 3.62192 6.66122 3.53222L6.55889 4.12343ZM3.78556 3.64343L6.55889 4.12343L6.66122 3.53222L3.88788 3.05222L3.78556 3.64343ZM8.42085 20.0525C8.48931 20.8731 9.13042 21.5167 9.93203 21.6045L9.99734 21.008C9.47823 20.9512 9.06312 20.5341 9.01877 20.0026L8.42085 20.0525ZM7.61779 10.4904L8.42086 20.0526L9.01876 20.0024L8.21569 10.4402L7.61779 10.4904ZM26.5446 10.1653H7.91674V10.7653H26.5446V10.1653ZM26.6841 10.1748L26.5666 10.1661L26.5226 10.7645L26.6401 10.7732L26.6841 10.1748ZM27.6211 11.4091C27.7082 10.8071 27.2881 10.2637 26.7062 10.1772L26.618 10.7707C26.8782 10.8094 27.0664 11.0534 27.0273 11.3233L27.6211 11.4091ZM26.3558 20.1531L27.6211 11.4092L27.0273 11.3232L25.762 20.0672L26.3558 20.1531ZM26.3212 20.3262L26.3529 20.1698L25.7649 20.0504L25.7332 20.2068L26.3212 20.3262ZM24.6686 21.6147C25.4507 21.6147 26.1227 21.0844 26.3173 20.3426L25.737 20.1903C25.6107 20.6714 25.1748 21.0147 24.6686 21.0147V21.6147ZM10.1193 21.6147H24.6686V21.0147H10.1193V21.6147ZM9.94838 21.6058L10.103 21.6142L10.1356 21.0151L9.981 21.0067L9.94838 21.6058ZM9.89594 25.1269C8.61486 25.1269 7.57727 26.1667 7.57727 27.4469H8.17727C8.17727 26.4975 8.94681 25.7269 9.89594 25.7269V25.1269ZM12.2159 27.4469C12.2159 26.1662 11.1766 25.1269 9.89594 25.1269V25.7269C10.8452 25.7269 11.6159 26.4976 11.6159 27.4469H12.2159ZM9.89594 29.7655C11.1761 29.7655 12.2159 28.7279 12.2159 27.4469H11.6159C11.6159 28.396 10.8453 29.1655 9.89594 29.1655V29.7655ZM7.57727 27.4469C7.57727 28.7275 8.6153 29.7655 9.89594 29.7655V29.1655C8.94667 29.1655 8.17727 28.3961 8.17727 27.4469H7.57727ZM24.8993 25.1269C23.6187 25.1269 22.5793 26.1662 22.5793 27.4469H23.1793C23.1793 26.4976 23.9501 25.7269 24.8993 25.7269V25.1269ZM27.2193 27.4469C27.2193 26.1662 26.18 25.1269 24.8993 25.1269V25.7269C25.8486 25.7269 26.6193 26.4976 26.6193 27.4469H27.2193ZM24.8993 29.7655C26.1795 29.7655 27.2193 28.7279 27.2193 27.4469H26.6193C26.6193 28.396 25.8487 29.1655 24.8993 29.1655V29.7655ZM22.5793 27.4469C22.5793 28.7279 23.6191 29.7655 24.8993 29.7655V29.1655C23.9499 29.1655 23.1793 28.396 23.1793 27.4469H22.5793ZM22.5306 13.6931C22.9172 13.6931 23.2306 14.0065 23.2306 14.3931H23.8306C23.8306 13.6751 23.2486 13.0931 22.5306 13.0931V13.6931ZM18.8333 13.6931H22.5306V13.0931H18.8333V13.6931ZM18.7177 13.7016L18.8534 13.6924L18.8132 13.0938L18.6775 13.1029L18.7177 13.7016ZM18.1333 14.3931C18.1333 14.039 18.3966 13.7458 18.7379 13.6995L18.6573 13.105C18.0225 13.1911 17.5333 13.7347 17.5333 14.3931H18.1333ZM18.8333 15.0931C18.4467 15.0931 18.1333 14.7797 18.1333 14.3931H17.5333C17.5333 15.1111 18.1153 15.6931 18.8333 15.6931V15.0931ZM22.5306 15.0931H18.8333V15.6931H22.5306V15.0931ZM22.6462 15.0847L22.5105 15.0938L22.5508 15.6924L22.6865 15.6833L22.6462 15.0847ZM23.2306 14.3931C23.2306 14.7472 22.9674 15.0404 22.626 15.0867L22.7067 15.6813C23.3415 15.5951 23.8306 15.0515 23.8306 14.3931H23.2306Z" fill="#F7F8F9" mask="url(#path-1-inside-1)"/>
<circle cx="28.5" cy="6.5" r="5.85" fill="#F27474" stroke="#F7F8F9" stroke-width="1.3"/>
</svg>
