<svg width="32" height="32" viewBox="0 0 32 32" fill="none" xmlns="http://www.w3.org/2000/svg">
<path d="M24.4586 11.6137C23.5159 11.6137 22.7533 12.3763 22.7533 13.3177V19.3577C22.7533 19.81 22.9329 20.2437 23.2528 20.5635C23.5726 20.8833 24.0063 21.063 24.4586 21.063C24.9109 21.063 25.3446 20.8833 25.6645 20.5635C25.9843 20.2437 26.1639 19.81 26.1639 19.3577V13.3177C26.1639 12.3763 25.4013 11.6137 24.4586 11.6137ZM7.54127 11.6137C6.5986 11.6137 5.83594 12.3763 5.83594 13.3177V19.3577C5.83594 19.81 6.01561 20.2437 6.33542 20.5635C6.65523 20.8833 7.08899 21.063 7.54127 21.063C7.99355 21.063 8.42731 20.8833 8.74712 20.5635C9.06694 20.2437 9.2466 19.81 9.2466 19.3577V13.3177C9.24678 13.0937 9.20278 12.872 9.11713 12.6651C9.03147 12.4582 8.90584 12.2702 8.74743 12.1119C8.58903 11.9536 8.40095 11.8281 8.19398 11.7426C7.98701 11.6571 7.76521 11.6133 7.54127 11.6137ZM19.3933 6.53501L20.4173 4.68434C20.4472 4.63165 20.4664 4.57354 20.4736 4.51338C20.4809 4.45323 20.4762 4.39222 20.4597 4.33392C20.4432 4.27561 20.4153 4.22116 20.3775 4.17374C20.3398 4.12632 20.293 4.08686 20.2399 4.05767C20.187 4.02782 20.1286 4.00878 20.0683 4.00168C20.0079 3.99457 19.9467 3.99954 19.8883 4.01629C19.8298 4.03304 19.7753 4.06123 19.7279 4.09924C19.6804 4.13724 19.641 4.1843 19.6119 4.23767L18.5599 6.13101C17.7759 5.81767 16.9119 5.64034 15.9999 5.64034C15.0879 5.64034 14.2239 5.81634 13.4399 6.12967L12.3879 4.23901C12.3588 4.18563 12.3194 4.13858 12.272 4.10057C12.2246 4.06257 12.17 4.03437 12.1116 4.01762C12.0532 4.00087 11.992 3.99591 11.9316 4.00301C11.8712 4.01012 11.8129 4.02915 11.7599 4.05901C11.7071 4.08846 11.6606 4.12805 11.6231 4.1755C11.5855 4.22295 11.5577 4.27734 11.5413 4.33555C11.5248 4.39376 11.52 4.45465 11.5271 4.51473C11.5342 4.57481 11.553 4.6329 11.5826 4.68567L12.6066 6.53634C10.7626 7.58701 9.5306 9.46567 9.5306 11.6137C9.5306 11.6283 9.5306 11.6417 9.53327 11.659C9.5306 11.667 9.5306 11.6763 9.5306 11.6843V11.6857H22.4679V11.6843V11.659V11.6137C22.4693 9.46567 21.2373 7.58834 19.3933 6.53501ZM13.0133 9.15901C12.9526 9.15857 12.8926 9.14618 12.8367 9.12256C12.7808 9.09894 12.7302 9.06454 12.6876 9.02133C12.6015 8.93407 12.5537 8.8162 12.5546 8.69367C12.5555 8.57114 12.605 8.45398 12.6923 8.36797C12.7795 8.28195 12.8974 8.23412 13.0199 8.23501C13.1425 8.23589 13.2596 8.28541 13.3456 8.37268C13.4317 8.45995 13.4795 8.57781 13.4786 8.70034C13.4777 8.82287 13.4282 8.94003 13.3409 9.02605C13.2537 9.11206 13.1358 9.15989 13.0133 9.15901ZM18.9866 9.15901C18.8703 9.15016 18.7616 9.09771 18.6824 9.01217C18.6031 8.92663 18.559 8.8143 18.559 8.69767C18.559 8.58104 18.6031 8.46871 18.6824 8.38317C18.7616 8.29763 18.8703 8.24519 18.9866 8.23634C19.109 8.23634 19.2263 8.28494 19.3128 8.37146C19.3993 8.45798 19.4479 8.57532 19.4479 8.69767C19.4479 8.82003 19.3993 8.93737 19.3128 9.02388C19.2263 9.1104 19.109 9.15901 18.9866 9.15901ZM9.5306 21.4937C9.5306 22.355 10.2306 23.055 11.0959 23.055H11.8773V26.2563C11.8773 26.7086 12.0569 27.1424 12.3768 27.4622C12.6966 27.782 13.1303 27.9617 13.5826 27.9617C14.0349 27.9617 14.4686 27.782 14.7885 27.4622C15.1083 27.1424 15.2879 26.7086 15.2879 26.2563V23.055H16.7093V26.2563C16.7093 27.199 17.4719 27.9603 18.4119 27.9603C19.3573 27.9603 20.1199 27.199 20.1199 26.2563V23.055H20.9013C21.7653 23.055 22.4666 22.3563 22.4666 21.4937V12.0377H9.5306V21.4937Z" fill="#6F747C"/>
</svg>
