<svg width="28" height="28" viewBox="0 0 28 28" fill="none" xmlns="http://www.w3.org/2000/svg">
<rect x="0.260521" y="0.260521" width="27.479" height="27.479" rx="13.7395" stroke="#DEE3EB" stroke-width="0.521042"/>
<g clip-path="url(#clip0)">
<path d="M19.7096 8.29258C17.3929 5.97611 13.4645 6.90848 12.6174 10.0464C12.0906 11.9981 12.0672 12.7451 10.7319 14.0803L10.2559 14.5563L13.4452 17.7453L13.8682 17.3224C15.2258 15.9649 15.9961 15.9222 17.973 15.3793C18.6599 15.1908 19.289 14.8251 19.7923 14.3219H19.7924C21.4577 12.6567 21.3743 9.95709 19.7096 8.29258Z" fill="#F27474"/>
<path d="M10.652 16.1172L9.33569 17.4334C8.88903 16.8384 8.00811 16.8299 7.45162 17.3484C6.71487 18.0349 6.91617 19.1862 7.78943 19.4775C8.1374 19.5936 8.40664 19.8628 8.52276 20.2108C8.81374 21.0828 9.96508 21.2856 10.6521 20.5485C11.166 19.9971 11.1639 19.1217 10.5757 18.6715L11.8911 17.3562L10.652 16.1172Z" fill="#F27474"/>
</g>
<defs>
<clipPath id="clip0">
<rect width="14" height="14" fill="white" transform="translate(7 7.00073)"/>
</clipPath>
</defs>
</svg>
