<svg width="28" height="28" viewBox="0 0 28 28" fill="none" xmlns="http://www.w3.org/2000/svg">
<rect x="0.260521" y="0.260521" width="27.479" height="27.479" rx="13.7395" stroke="#DEE3EB" stroke-width="0.521042"/>
<g clip-path="url(#clip0)">
<path d="M6.72406 17.353L6.83802 17.2983L6.97506 17.2337L7.06196 17.1928C7.07715 17.1855 7.09399 17.1781 7.10918 17.1702L7.15162 17.1456C7.21466 17.1087 7.27798 17.0723 7.34156 17.0364C7.40799 16.9995 7.48712 16.9515 7.56918 16.9024C7.65134 16.8531 7.73821 16.8025 7.82762 16.7429L7.96512 16.655L8.03577 16.6098L8.10696 16.5606C8.2989 16.4306 8.50002 16.2823 8.70627 16.1211L8.86174 15.998C8.9139 15.9565 8.96531 15.9108 9.01784 15.8675C9.07002 15.8231 9.12312 15.7809 9.17524 15.7341L9.33237 15.5939C9.38512 15.5479 9.43712 15.4985 9.48946 15.4494L9.64652 15.3019L9.80193 15.1478C9.82781 15.122 9.85368 15.0963 9.87956 15.0705L9.95649 14.9908C10.163 14.7823 10.3621 14.5556 10.5582 14.3319C10.6554 14.2173 10.7518 14.1044 10.8453 13.9871C10.94 13.8731 11.0317 13.754 11.1226 13.6393C11.2123 13.5204 11.3014 13.4059 11.387 13.2873C11.4738 13.1718 11.5577 13.054 11.6399 12.9392C11.681 12.8819 11.721 12.823 11.7609 12.766C11.8007 12.7094 11.8399 12.6523 11.8785 12.5949L11.9932 12.4269L12.1041 12.2607C12.1769 12.1518 12.247 12.0428 12.3147 11.9386C12.3825 11.8327 12.4468 11.7312 12.5117 11.6334C12.6405 11.4404 12.7672 11.2654 12.8868 11.116C12.943 11.0452 13.0008 10.9757 13.0603 10.9076C13.1163 10.843 13.1698 10.7859 13.2185 10.7344C13.3187 10.6296 13.4022 10.5523 13.4639 10.4985C13.5246 10.4456 13.5598 10.4203 13.5598 10.4203C15.0603 9.33944 17.1528 9.67966 18.2337 11.1802C19.0867 12.3645 19.0545 13.9175 18.2654 15.0509L18.248 15.0742C18.248 15.0742 18.2239 15.1087 18.1733 15.1679C18.1239 15.2264 18.0444 15.3136 17.937 15.4182C17.8816 15.4712 17.8201 15.5298 17.7507 15.5911C17.6742 15.6586 17.5962 15.7245 17.5167 15.7886C17.3439 15.9276 17.1407 16.078 16.9033 16.2332C16.6668 16.3874 16.3989 16.5472 16.1148 16.7162C15.8315 16.8853 15.5232 17.0576 15.202 17.23C14.8802 17.4028 14.5404 17.5732 14.191 17.7375C13.8397 17.901 13.4785 18.0579 13.1107 18.202C13.0196 18.2387 12.9258 18.2727 12.8339 18.3077C12.7417 18.3425 12.6496 18.3765 12.5557 18.4083L12.2772 18.5039L11.9977 18.593L11.8591 18.6365L11.7192 18.6765L11.4425 18.7543L11.1667 18.8245L11.0307 18.8584C10.9856 18.8695 10.9395 18.8788 10.8943 18.8889L10.6256 18.9469C10.5373 18.966 10.4476 18.9809 10.3606 18.9975C10.2731 19.0133 10.1874 19.0296 10.1014 19.0428L9.84712 19.0802C9.51365 19.1289 9.19543 19.1552 8.90431 19.1736C8.61246 19.1903 8.34677 19.1976 8.11071 19.1911C7.99296 19.1893 7.88568 19.1882 7.77715 19.1828C7.68074 19.179 7.58437 19.1742 7.48806 19.1684L7.42496 19.1647C7.40584 19.1629 7.38915 19.1603 7.37196 19.1582L7.27668 19.1461L7.1264 19.1268L7.00115 19.1098C6.49309 19.041 6.13696 18.5734 6.20577 18.0653C6.2489 17.7463 6.45496 17.4846 6.72406 17.353Z" fill="#F27474"/>
<path d="M15.0118 11.9284L14.9013 11.9952L14.843 12.0303C14.8311 12.0372 14.8242 12.0423 14.8158 12.048L14.7899 12.0656L14.7323 12.104L14.7006 12.1246L14.6653 12.1517C14.6174 12.1899 14.563 12.227 14.5093 12.2755L14.4251 12.3474C14.3965 12.3725 14.3682 12.4003 14.3388 12.4275C14.2795 12.4809 14.2208 12.5425 14.16 12.6034C14.1297 12.6339 14.1 12.6671 14.0696 12.6992C14.0394 12.7315 14.0089 12.7639 13.9789 12.7981L13.8886 12.8992L13.799 13.0025L13.6234 13.2075C13.5655 13.2753 13.5097 13.3407 13.4542 13.4038C13.4004 13.4664 13.3448 13.5264 13.295 13.5812C13.2475 13.6318 13.1991 13.6817 13.1499 13.7308C13.1027 13.7749 13.0633 13.8132 13.0278 13.8442L12.9113 13.9399C12.8542 13.987 12.7814 14.0109 12.7075 14.0069C12.6336 14.003 12.5638 13.9714 12.512 13.9185C12.4603 13.8655 12.4302 13.7951 12.4279 13.7211C12.4255 13.6471 12.4511 13.5749 12.4994 13.5188L12.5213 13.4934L12.5914 13.412C12.6134 13.3849 12.6398 13.3484 12.6702 13.309C12.7041 13.2612 12.7374 13.2129 12.7699 13.1641C12.8059 13.1077 12.8449 13.0488 12.8858 12.9812C12.9265 12.9156 12.9699 12.8434 13.0147 12.7689L13.1555 12.5353L13.2298 12.4137L13.3075 12.2905C13.333 12.2493 13.3604 12.2082 13.3877 12.1672C13.4152 12.1262 13.4412 12.0851 13.4697 12.0448C13.5268 11.9641 13.5814 11.884 13.6409 11.8083C13.6702 11.7703 13.6979 11.7324 13.7273 11.6962L13.8154 11.5905C13.8711 11.5209 13.9328 11.4593 13.9862 11.4005L14.0264 11.3575L14.0705 11.3154L14.1528 11.2379L14.1906 11.2027C14.2028 11.1914 14.2153 11.1797 14.2238 11.1727L14.2754 11.1284L14.3734 11.0444C14.6028 10.8477 14.9483 10.8742 15.1449 11.1036C15.3416 11.3329 15.3152 11.6784 15.0858 11.8751C15.0636 11.8941 15.0399 11.9114 15.015 11.9266L15.0118 11.9284Z" fill="white"/>
<path d="M21.7147 10.7988L21.7058 10.7885L21.5452 10.6027C21.5195 10.5733 21.4871 10.543 21.454 10.5088C21.4199 10.4752 21.385 10.4377 21.3439 10.4001L21.2091 10.2835C21.197 10.2734 21.1856 10.2625 21.1725 10.2528L21.1325 10.2234L21.0497 10.1629C20.936 10.0815 20.8018 10.004 20.6517 9.93589C20.6335 9.92649 20.614 9.91905 20.5942 9.91192L20.5346 9.88986L20.4743 9.86783C20.4541 9.85986 20.4333 9.85328 20.4122 9.84814L20.2837 9.8148C20.2728 9.81214 20.262 9.80911 20.2511 9.80677L20.2177 9.80133L20.1505 9.79067C20.1055 9.78358 20.0602 9.77586 20.014 9.77455C19.968 9.77196 19.9216 9.76852 19.8751 9.76724L19.7352 9.77177L19.7001 9.77314L19.6654 9.77717L19.5958 9.78549C19.4105 9.80958 19.2278 9.85511 19.0576 9.92052C18.8872 9.98511 18.7236 10.0612 18.5735 10.1483C18.4916 10.1953 18.4111 10.2446 18.332 10.2961C17.7663 9.78627 16.9766 9.63336 16.2738 9.86264C16.272 9.87024 16.2739 9.87621 16.2714 9.88402C16.2052 10.0868 16.1506 10.2981 17.0279 11.2527C17.9051 12.2073 18.7077 13.0394 18.8501 12.6809C19.0855 12.0885 19.0765 11.4124 18.7634 10.84C18.8136 10.8156 18.8642 10.792 18.9152 10.7695C19.0469 10.7106 19.1814 10.6669 19.3121 10.6335C19.443 10.5993 19.5704 10.5857 19.6883 10.5853L19.7323 10.5855L19.754 10.5854L19.7752 10.5878C19.8034 10.5909 19.8311 10.5936 19.8585 10.5959L19.9377 10.6115C19.964 10.6148 19.9888 10.6238 20.0134 10.6314L20.05 10.6422L20.0681 10.6473C20.074 10.6495 20.0798 10.6524 20.0856 10.6548C20.1089 10.6649 20.1317 10.6744 20.1544 10.6833C20.16 10.6856 20.1657 10.6875 20.1712 10.6902L20.1875 10.6993L20.2198 10.7168L20.2516 10.7335C20.2621 10.7387 20.2726 10.7441 20.2826 10.7517C20.3637 10.8038 20.4381 10.8595 20.504 10.9214L20.5521 10.967L20.5755 10.9887C20.5831 10.9959 20.5902 11.0049 20.5974 11.0127L20.679 11.1028C20.7042 11.1321 20.7263 11.1634 20.7476 11.1898C20.7685 11.2174 20.7886 11.2402 20.8052 11.2646L20.9092 11.4175C20.92 11.4334 20.9321 11.4492 20.9449 11.464C21.1286 11.6766 21.4498 11.7 21.6624 11.5163C21.875 11.3325 21.8984 11.0113 21.7147 10.7988ZM18.4397 10.4001C18.4432 10.4038 18.4467 10.4077 18.4502 10.4114C18.4467 10.4077 18.4432 10.4038 18.4397 10.4001ZM18.6562 10.6656C18.6593 10.6702 18.6625 10.6747 18.6655 10.6793C18.6625 10.6747 18.6593 10.6701 18.6562 10.6656ZM18.5994 10.5868C18.604 10.5929 18.6085 10.599 18.6129 10.605C18.6084 10.599 18.604 10.5929 18.5994 10.5868Z" fill="#F27474"/>
</g>
<defs>
<clipPath id="clip0">
<rect width="16" height="16" fill="white" transform="translate(6.00195 6.00073)"/>
</clipPath>
</defs>
</svg>
