<svg width="28" height="28" viewBox="0 0 28 28" fill="none" xmlns="http://www.w3.org/2000/svg">
<rect x="0.260521" y="0.260521" width="27.479" height="27.479" rx="13.7395" stroke="#DEE3EB" stroke-width="0.521042"/>
<g clip-path="url(#clip0)">
<path d="M11.6593 13.6988L15.7047 17.7442C15.7234 17.3853 15.7395 16.5931 15.6034 15.6439C15.3581 13.9331 14.7272 12.5276 13.7788 11.5793C12.8305 10.631 11.425 10.0001 9.71427 9.75475C8.44136 9.5722 7.45018 9.6634 7.40862 9.66742C7.20499 9.68688 7.0438 9.84808 7.02433 10.0517C7.02034 10.0933 6.92914 11.0844 7.11166 12.3574C7.35696 14.0681 7.98787 15.4736 8.9362 16.4219C9.88451 17.3702 11.29 18.0012 13.0008 18.2465C13.6308 18.3368 14.1917 18.3601 14.6026 18.3601C14.8108 18.3601 14.9804 18.3541 15.1011 18.3478L11.0557 14.3024C10.889 14.1358 10.889 13.8655 11.0557 13.6988C11.2224 13.5322 11.4926 13.5322 11.6593 13.6988Z" fill="#F27474"/>
<path d="M20.9802 12.6286C20.9607 12.425 20.7996 12.2638 20.5959 12.2443C20.4818 12.2334 17.7837 11.9954 16.2125 13.5666C16.1513 13.6278 16.0929 13.6907 16.0371 13.7551C16.2211 14.3052 16.3597 14.8964 16.4495 15.5232C16.4783 15.7239 16.5007 15.9176 16.5181 16.1027L17.6334 14.9875C17.8 14.8208 18.0703 14.8208 18.237 14.9875C18.4037 15.1541 18.4037 15.4244 18.237 15.5911L16.5722 17.2559C16.5718 17.691 16.547 17.9746 16.5416 18.0313C16.5321 18.1314 16.5108 18.2281 16.4795 18.3202C17.4276 18.2326 18.7365 17.9335 19.6579 17.012C21.2291 15.4409 20.9911 12.7427 20.9802 12.6286Z" fill="#F27474"/>
</g>
<defs>
<clipPath id="clip0">
<rect width="14" height="14" fill="white" transform="translate(6.99805 7.00073)"/>
</clipPath>
</defs>
</svg>
