<svg width="15" height="19" viewBox="0 0 15 19" fill="none" xmlns="http://www.w3.org/2000/svg">
<ellipse cx="7.13" cy="5.36852" rx="4.18078" ry="4.18078" stroke="#252A2F" stroke-width="0.984375" stroke-linecap="round" stroke-linejoin="round"/>
<path fill-rule="evenodd" clip-rule="evenodd" d="M0.498061 15.3641C0.496938 15.0702 0.562668 14.7799 0.690281 14.5151C1.09074 13.7142 2.22003 13.2897 3.1571 13.0975C3.83291 12.9533 4.51806 12.8569 5.20744 12.8092C6.48378 12.6971 7.76749 12.6971 9.04383 12.8092C9.73315 12.8575 10.4183 12.9538 11.0942 13.0975C12.0312 13.2897 13.1605 13.6742 13.561 14.5151C13.8176 15.0548 13.8176 15.6814 13.561 16.2211C13.1605 17.062 12.0312 17.4465 11.0942 17.6307C10.4191 17.7809 9.73375 17.8799 9.04383 17.927C8.00499 18.0151 6.96131 18.0312 5.92026 17.9751C5.67998 17.9751 5.44772 17.9751 5.20744 17.927C4.5201 17.8805 3.83733 17.7815 3.16511 17.6307C2.22003 17.4465 1.09875 17.062 0.690281 16.2211C0.56332 15.9533 0.497655 15.6605 0.498061 15.3641Z" stroke="#252A2F" stroke-width="0.984375" stroke-linecap="round" stroke-linejoin="round"/>
</svg>
