<svg width="16" height="15" viewBox="0 0 16 15" fill="none" xmlns="http://www.w3.org/2000/svg">
<path d="M15.9581 5.66789C15.8528 5.35095 15.5654 5.12655 15.2268 5.09658L10.6081 4.68636L8.78274 0.505638C8.64797 0.198485 8.34132 0.000244141 8.00001 0.000244141C7.6587 0.000244141 7.35193 0.198485 7.21802 0.505638L5.39267 4.68636L0.773215 5.09658C0.434587 5.12715 0.147839 5.35154 0.0418804 5.66789C-0.0634679 5.98484 0.0338237 6.33248 0.289931 6.55221L3.78132 9.5472L2.75188 13.9828C2.67656 14.3089 2.80596 14.6462 3.08258 14.8418C3.23126 14.9475 3.40595 15.0002 3.58124 15.0002C3.73188 15.0002 3.88264 14.9611 4.01728 14.8823L8.00001 12.5526L11.982 14.8823C12.2741 15.053 12.6414 15.0374 12.9174 14.8418C13.1941 14.6462 13.3235 14.3089 13.2481 13.9828L12.2187 9.5472L15.7101 6.55221C15.9661 6.33248 16.0635 5.98555 15.9581 5.66789Z" fill="#FFE600"/>
</svg>
