<svg width="32" height="32" viewBox="0 0 32 32" fill="none" xmlns="http://www.w3.org/2000/svg">
<path d="M6.31279 6.31294C6.31279 5.4758 6.64535 4.67294 7.2373 4.081C7.82924 3.48905 8.6321 3.15649 9.46924 3.15649H20.5168C21.3539 3.15649 22.1568 3.48905 22.7487 4.081C23.3407 4.67294 23.6733 5.4758 23.6733 6.31294V17.3605H28.4079V20.517C28.4079 21.7727 27.9091 22.9769 27.0212 23.8649C26.1332 24.7528 24.929 25.2516 23.6733 25.2516H17.0337C17.4558 23.7649 17.4732 22.1924 17.0843 20.6966C16.6954 19.2008 15.9141 17.836 14.8213 16.7431C13.7284 15.6503 12.3636 14.869 10.8678 14.4801C9.37206 14.0912 7.79956 14.1087 6.31279 14.5308V6.31294ZM23.6733 23.6734C24.5104 23.6734 25.3132 23.3408 25.9052 22.7489C26.4971 22.1569 26.8297 21.3541 26.8297 20.517V18.9387H23.6733V23.6734ZM11.8366 7.89116C11.6273 7.89116 11.4266 7.9743 11.2786 8.12229C11.1306 8.27028 11.0475 8.47099 11.0475 8.68028C11.0475 8.88956 11.1306 9.09028 11.2786 9.23826C11.4266 9.38625 11.6273 9.46939 11.8366 9.46939H18.1495C18.3588 9.46939 18.5595 9.38625 18.7075 9.23826C18.8554 9.09028 18.9386 8.88956 18.9386 8.68028C18.9386 8.47099 18.8554 8.27028 18.7075 8.12229C18.5595 7.9743 18.3588 7.89116 18.1495 7.89116H11.8366ZM11.8366 11.0476C11.6273 11.0476 11.4266 11.1308 11.2786 11.2787C11.1306 11.4267 11.0475 11.6274 11.0475 11.8367C11.0475 12.046 11.1306 12.2467 11.2786 12.3947C11.4266 12.5427 11.6273 12.6258 11.8366 12.6258H18.1495C18.3588 12.6258 18.5595 12.5427 18.7075 12.3947C18.8554 12.2467 18.9386 12.046 18.9386 11.8367C18.9386 11.6274 18.8554 11.4267 18.7075 11.2787C18.5595 11.1308 18.3588 11.0476 18.1495 11.0476H11.8366ZM15.7821 22.8843C15.7821 24.7679 15.0339 26.5743 13.702 27.9062C12.3701 29.238 10.5637 29.9863 8.68013 29.9863C6.79656 29.9863 4.99014 29.238 3.65825 27.9062C2.32637 26.5743 1.57813 24.7679 1.57812 22.8843C1.57812 21.0007 2.32637 19.1943 3.65825 17.8624C4.99014 16.5305 6.79656 15.7823 8.68013 15.7823C10.5637 15.7823 12.3701 16.5305 13.702 17.8624C15.0339 19.1943 15.7821 21.0007 15.7821 22.8843ZM9.46924 19.7278C9.46924 19.5186 9.3861 19.3178 9.23812 19.1699C9.09013 19.0219 8.88941 18.9387 8.68013 18.9387C8.47084 18.9387 8.27013 19.0219 8.12214 19.1699C7.97416 19.3178 7.89102 19.5186 7.89102 19.7278V22.0952H5.52368C5.3144 22.0952 5.11368 22.1783 4.9657 22.3263C4.81771 22.4743 4.73457 22.675 4.73457 22.8843C4.73457 23.0936 4.81771 23.2943 4.9657 23.4423C5.11368 23.5903 5.3144 23.6734 5.52368 23.6734H7.89102V26.0407C7.89102 26.25 7.97416 26.4507 8.12214 26.5987C8.27013 26.7467 8.47084 26.8298 8.68013 26.8298C8.88941 26.8298 9.09013 26.7467 9.23812 26.5987C9.3861 26.4507 9.46924 26.25 9.46924 26.0407V23.6734H11.8366C12.0459 23.6734 12.2466 23.5903 12.3946 23.4423C12.5425 23.2943 12.6257 23.0936 12.6257 22.8843C12.6257 22.675 12.5425 22.4743 12.3946 22.3263C12.2466 22.1783 12.0459 22.0952 11.8366 22.0952H9.46924V19.7278Z" fill="white"/>
</svg>
