<svg width="32" height="32" viewBox="0 0 32 32" fill="none" xmlns="http://www.w3.org/2000/svg">
<path d="M16.4396 1.97278C14.1117 1.97278 12.06 3.51155 11.4024 5.74736C10.7054 5.43172 9.96887 5.26074 9.20606 5.26074C7.81082 5.26074 6.47273 5.815 5.48615 6.80158C4.49957 7.78816 3.94531 9.12625 3.94531 10.5215C3.94843 11.6865 4.33723 12.8177 5.05101 13.7385C5.7648 14.6593 6.76339 15.3178 7.89087 15.6113V24.9885H24.9883V15.6113C27.303 15.0063 28.9339 12.9151 28.9339 10.5215C28.9339 9.12625 28.3796 7.78816 27.393 6.80158C26.4064 5.815 25.0683 5.26074 23.6731 5.26074C22.9103 5.26074 22.1738 5.43172 21.4767 5.74736C20.8192 3.51155 18.7675 1.97278 16.4396 1.97278ZM15.782 13.8095H17.0972V23.0158H15.782V13.8095ZM11.8364 16.4398H13.1516V23.0158H11.8364V16.4398ZM19.7275 16.4398H21.0427V23.0158H19.7275V16.4398ZM7.89087 26.3037V27.6189C7.89087 27.9677 8.02944 28.3022 8.27608 28.5489C8.52273 28.7955 8.85725 28.9341 9.20606 28.9341H23.6731C24.0219 28.9341 24.3564 28.7955 24.6031 28.5489C24.8497 28.3022 24.9883 27.9677 24.9883 27.6189V26.3037H7.89087Z" fill="#6F747C"/>
</svg>
