<svg width="33" height="32" viewBox="0 0 33 32" fill="none" xmlns="http://www.w3.org/2000/svg">
<g clip-path="url(#clip0)">
<path d="M26.6529 17.5276L25.3285 6.04956H28.2427V1.79292C28.0311 1.78016 27.8192 1.77362 27.607 1.77368C25.5053 1.77374 23.4004 2.41206 21.8578 3.92124L21.9545 5.49256H19.3169V7.34925H22.0688L22.6454 16.7191C22.7155 17.8576 21.8109 18.8194 20.6703 18.8194H12.4637C12.4637 17.644 12.9405 16.5798 13.7106 15.8097C14.4807 15.0396 15.5448 14.5628 16.7203 14.5628V12.4345H11.5829C8.64388 12.4345 5.98377 13.6257 4.05784 15.551C2.13259 17.4769 0.941406 20.137 0.941406 23.076H21.7079C24.6831 23.076 26.994 20.4832 26.6529 17.5276Z" fill="white"/>
<path d="M28.4777 17.1409L28.4978 17.3149C28.721 19.2491 28.106 21.1921 26.8105 22.6457C26.6766 22.796 26.5362 22.9393 26.3906 23.0762H32.5062C32.5062 20.3822 30.8376 18.0784 28.4777 17.1409Z" fill="white"/>
<path d="M7.27133 11.3433C8.65061 10.8351 10.0994 10.5775 11.5868 10.5775H16.7243V9.27559C16.7243 8.16473 15.8238 7.26416 14.7128 7.26416H8.09737C6.98651 7.26416 6.08594 8.16467 6.08594 9.27559V9.50937C6.08594 10.3258 6.57254 11.028 7.27133 11.3433Z" fill="white"/>
<path d="M8.44117 24.9326V26.5184H6.58447V24.9326H3.30121C3.27292 25.1298 3.25781 25.3312 3.25781 25.5362C3.25781 27.8861 5.16284 29.7911 7.51279 29.7911C9.86274 29.7911 11.7678 27.8861 11.7678 25.5362C11.7678 25.3312 11.7527 25.1298 11.7244 24.9326H8.44117Z" fill="white"/>
<path d="M26.8591 24.9326V26.5184H25.0024V24.9326H21.7192C21.6908 25.1298 21.6758 25.3312 21.6758 25.5362C21.6758 27.8861 23.5808 29.7911 25.9308 29.7911C28.2807 29.7911 30.1857 27.8861 30.1857 25.5362C30.1857 25.3312 30.1707 25.1298 30.1423 24.9326H26.8591Z" fill="white"/>
</g>
<defs>
<clipPath id="clip0">
<rect width="31.5645" height="31.5645" fill="white" transform="translate(0.941406)"/>
</clipPath>
</defs>
</svg>
