<svg width="32" height="32" viewBox="0 0 32 32" fill="none" xmlns="http://www.w3.org/2000/svg">
<path d="M6.31279 6.31282C6.31279 5.47568 6.64535 4.67282 7.2373 4.08087C7.82924 3.48893 8.6321 3.15637 9.46924 3.15637H20.5168C21.3539 3.15637 22.1568 3.48893 22.7487 4.08087C23.3407 4.67282 23.6733 5.47568 23.6733 6.31282V17.3604H28.4079V20.5168C28.4079 21.7725 27.9091 22.9768 27.0212 23.8647C26.1332 24.7527 24.929 25.2515 23.6733 25.2515H17.0337C17.4558 23.7647 17.4732 22.1922 17.0843 20.6965C16.6954 19.2007 15.9141 17.8359 14.8213 16.743C13.7284 15.6502 12.3636 14.8689 10.8678 14.48C9.37206 14.0911 7.79956 14.1085 6.31279 14.5306V6.31282ZM23.6733 23.6733C24.5104 23.6733 25.3132 23.3407 25.9052 22.7488C26.4971 22.1568 26.8297 21.354 26.8297 20.5168V18.9386H23.6733V23.6733ZM11.8366 7.89104C11.6273 7.89104 11.4266 7.97418 11.2786 8.12217C11.1306 8.27016 11.0475 8.47087 11.0475 8.68015C11.0475 8.88944 11.1306 9.09015 11.2786 9.23814C11.4266 9.38613 11.6273 9.46927 11.8366 9.46927H18.1495C18.3588 9.46927 18.5595 9.38613 18.7075 9.23814C18.8554 9.09015 18.9386 8.88944 18.9386 8.68015C18.9386 8.47087 18.8554 8.27016 18.7075 8.12217C18.5595 7.97418 18.3588 7.89104 18.1495 7.89104H11.8366ZM11.8366 11.0475C11.6273 11.0475 11.4266 11.1306 11.2786 11.2786C11.1306 11.4266 11.0475 11.6273 11.0475 11.8366C11.0475 12.0459 11.1306 12.2466 11.2786 12.3946C11.4266 12.5426 11.6273 12.6257 11.8366 12.6257H18.1495C18.3588 12.6257 18.5595 12.5426 18.7075 12.3946C18.8554 12.2466 18.9386 12.0459 18.9386 11.8366C18.9386 11.6273 18.8554 11.4266 18.7075 11.2786C18.5595 11.1306 18.3588 11.0475 18.1495 11.0475H11.8366ZM15.7821 22.8842C15.7821 24.7677 15.0339 26.5742 13.702 27.906C12.3701 29.2379 10.5637 29.9862 8.68013 29.9862C6.79656 29.9862 4.99014 29.2379 3.65825 27.906C2.32637 26.5742 1.57813 24.7677 1.57812 22.8842C1.57812 21.0006 2.32637 19.1942 3.65825 17.8623C4.99014 16.5304 6.79656 15.7822 8.68013 15.7822C10.5637 15.7822 12.3701 16.5304 13.702 17.8623C15.0339 19.1942 15.7821 21.0006 15.7821 22.8842ZM9.46924 19.7277C9.46924 19.5184 9.3861 19.3177 9.23812 19.1697C9.09013 19.0217 8.88941 18.9386 8.68013 18.9386C8.47084 18.9386 8.27013 19.0217 8.12214 19.1697C7.97416 19.3177 7.89102 19.5184 7.89102 19.7277V22.0951H5.52368C5.3144 22.0951 5.11368 22.1782 4.9657 22.3262C4.81771 22.4742 4.73457 22.6749 4.73457 22.8842C4.73457 23.0935 4.81771 23.2942 4.9657 23.4422C5.11368 23.5901 5.3144 23.6733 5.52368 23.6733H7.89102V26.0406C7.89102 26.2499 7.97416 26.4506 8.12214 26.5986C8.27013 26.7466 8.47084 26.8297 8.68013 26.8297C8.88941 26.8297 9.09013 26.7466 9.23812 26.5986C9.3861 26.4506 9.46924 26.2499 9.46924 26.0406V23.6733H11.8366C12.0459 23.6733 12.2466 23.5901 12.3946 23.4422C12.5425 23.2942 12.6257 23.0935 12.6257 22.8842C12.6257 22.6749 12.5425 22.4742 12.3946 22.3262C12.2466 22.1782 12.0459 22.0951 11.8366 22.0951H9.46924V19.7277Z" fill="#6F747C"/>
</svg>
