<svg width="32" height="32" viewBox="0 0 32 32" fill="none" xmlns="http://www.w3.org/2000/svg">
<path d="M16.4396 1.97266C14.1117 1.97266 12.06 3.51142 11.4024 5.74724C10.7054 5.4316 9.96887 5.26062 9.20606 5.26062C7.81082 5.26062 6.47273 5.81488 5.48615 6.80146C4.49957 7.78804 3.94531 9.12613 3.94531 10.5214C3.94843 11.6864 4.33723 12.8176 5.05101 13.7384C5.7648 14.6592 6.76339 15.3177 7.89087 15.6111V24.9884H24.9883V15.6111C27.303 15.0062 28.9339 12.915 28.9339 10.5214C28.9339 9.12613 28.3796 7.78804 27.393 6.80146C26.4064 5.81488 25.0683 5.26062 23.6731 5.26062C22.9103 5.26062 22.1738 5.4316 21.4767 5.74724C20.8192 3.51142 18.7675 1.97266 16.4396 1.97266ZM15.782 13.8093H17.0972V23.0156H15.782V13.8093ZM11.8364 16.4397H13.1516V23.0156H11.8364V16.4397ZM19.7275 16.4397H21.0427V23.0156H19.7275V16.4397ZM7.89087 26.3036V27.6188C7.89087 27.9676 8.02944 28.3021 8.27608 28.5488C8.52273 28.7954 8.85725 28.934 9.20606 28.934H23.6731C24.0219 28.934 24.3564 28.7954 24.6031 28.5488C24.8497 28.3021 24.9883 27.9676 24.9883 27.6188V26.3036H7.89087Z" fill="white"/>
</svg>
