<svg width="154" height="49" viewBox="0 0 154 49" fill="none" xmlns="http://www.w3.org/2000/svg">
<circle cx="24.5" cy="24.5" r="24.5" fill="#E5454C"/>
<line x1="28" y1="24" x2="154" y2="24" stroke="#E5454C" stroke-width="2"/>
<path d="M25.9931 39C24.7214 37.9742 24.7214 36.5802 24.41 35.3703C24.2283 34.6338 24.0207 34.1078 23.1643 34.1078C22.3339 34.1078 22.3079 33.608 22.5415 32.8979C23.7872 28.8473 24.1505 24.7442 23.5536 20.5095C23.3979 19.4574 23.1903 19.2733 22.256 19.773C20.1799 20.8777 18.7006 22.5348 17.8183 24.7179C17.4809 25.5332 17.1954 26.3486 16.8321 27.1377C16.6505 27.5848 16.365 27.9004 15.846 27.5059C15.0415 26.8746 14.2629 27.164 13.4325 27.5059C12.1868 28.0056 11.8494 27.7426 12.057 26.4012C12.4722 23.6921 13.8217 21.509 15.8719 19.7467C17.3512 18.4842 18.9602 17.4847 20.7768 16.7746C22.5155 16.117 22.5155 16.117 21.711 14.46C21.5813 14.1969 21.218 13.9865 21.4775 13.5657C21.9446 12.8292 22.7751 12.8029 23.2422 13.5394C24.3841 15.3016 24.9031 15.5383 26.9533 15.0123C28.8737 14.5126 30.7682 14.46 33 15.0386C31.4169 15.6173 30.0675 16.0118 28.7958 16.5904C25.0328 18.2475 25.5 17.774 26.4083 21.4038C27.8097 27.0588 28.2249 32.6875 26.2526 38.2898C26.1747 38.5003 26.0969 38.6844 25.9931 39Z" fill="white"/>
</svg>
