<svg width="24" height="24" viewBox="0 0 24 24" fill="none" xmlns="http://www.w3.org/2000/svg">
<path fill-rule="evenodd" clip-rule="evenodd" d="M12 2.00049C6.47679 2.00049 2 6.47727 2 12.0005C2 17.5237 6.47679 22.0005 12 22.0005C17.5232 22.0005 22 17.5237 22 12.0005C22 6.47727 17.5232 2.00049 12 2.00049ZM12 3.50049C16.6948 3.50049 20.5 7.3057 20.5 12.0005C20.5 16.6953 16.6948 20.5005 12 20.5005C7.30521 20.5005 3.5 16.6953 3.5 12.0005C3.5 7.3057 7.30521 3.50049 12 3.50049ZM12.4033 7.74491C12.3536 7.37883 12.0399 7.09668 11.6602 7.09668C11.2459 7.09668 10.9102 7.43247 10.9102 7.84668V12.6937L10.9185 12.8054C10.9516 13.0255 11.0815 13.2218 11.2759 13.3378L15.0459 15.5868L15.1368 15.633C15.4767 15.7779 15.8797 15.653 16.0743 15.3269L16.1205 15.236C16.2654 14.8962 16.1405 14.4931 15.8144 14.2986L12.4098 12.2668L12.4102 7.84668L12.4033 7.74491Z" fill="#6F747C"/>
</svg>
