<svg width="28" height="28" viewBox="0 0 28 28" fill="none" xmlns="http://www.w3.org/2000/svg">
<path fill-rule="evenodd" clip-rule="evenodd" d="M27.332 14.001C27.332 21.3596 21.3587 27.3343 13.9987 27.3343C6.62537 27.3343 0.665367 21.3596 0.665366 14.001C0.665365 6.63962 6.62536 0.667623 13.9987 0.667623C21.3587 0.667622 27.332 6.63962 27.332 14.001ZM15.1717 19.0543C15.1717 19.693 14.6383 20.2276 13.9983 20.2276C13.3583 20.2276 12.8383 19.693 12.8383 19.0543L12.8383 13.161C12.8383 12.5196 13.3583 12.001 13.9983 12.001C14.6383 12.001 15.1717 12.5196 15.1717 13.161L15.1717 19.0543ZM13.9857 7.75961C14.6391 7.75961 15.1591 8.29295 15.1591 8.93295C15.1591 9.57295 14.6391 10.0929 13.9991 10.0929C13.3457 10.0929 12.8257 9.57295 12.8257 8.93295C12.8257 8.29295 13.3457 7.75961 13.9857 7.75961Z" fill="#252A2F"/>
</svg>
