<svg width="312" height="46" viewBox="0 0 312 46" fill="none" xmlns="http://www.w3.org/2000/svg">
<path d="M197.362 43.909C199.972 41.4464 197.232 40.9817 196.362 40.0524C196.319 39.4019 196.667 39.4948 196.841 39.4948C200.711 39.6807 200.494 39.6342 201.407 35.6846C203.016 28.8542 202.233 22.3955 199.493 16.1691C198.798 14.5428 199.233 14.2175 200.624 14.264C202.277 14.3105 203.668 13.4741 205.147 12.7306C206.582 11.9872 207.452 12.1266 207.756 14.4499C208.8 22.6743 206.713 30.434 205.104 38.3332C204.93 39.1231 204.582 39.9595 205.799 39.913C210.322 39.6807 214.802 39.0302 218.542 35.9634C224.195 31.3169 224.63 23.1854 219.629 17.0984C214.758 11.1973 208.496 9.6639 201.45 10.8255C200.668 10.9649 199.885 11.1043 199.102 11.2902C198.363 11.4761 198.015 11.3831 198.232 10.4074C198.58 8.87399 197.667 8.08407 196.623 7.34062C196.014 6.92243 195.405 6.50424 194.927 5.94665C193.622 4.41328 193.927 3.39104 195.84 3.15871C203.973 2.18293 211.888 2.55466 219.107 7.38709C225.239 11.4761 228.109 17.563 227.805 25.1369C227.457 33.7795 222.456 38.9837 215.367 42.0969C209.626 44.5596 203.755 45.1172 197.362 43.909Z" fill="#E41A1A"/>
<path d="M167.181 15.8903C167.007 27.1814 164.833 37.0321 158.179 45.1636C157.961 45.0707 157.7 44.9778 157.483 44.9313C158.353 40.4241 159.527 35.9634 160.005 31.4563C160.788 24.347 161.006 17.2378 157.005 10.872C156.874 10.6397 156.787 10.3609 156.613 10.2215C154.482 8.36285 153.873 6.87595 157.135 5.62138C158.222 5.20319 158.048 3.66982 158.222 2.64758C158.57 0.510161 159.527 0.463702 161.136 1.11422C163.354 2.04353 164.354 3.99508 165.311 6.1325C167.964 11.9407 172.4 16.5408 174.922 22.5349C176.096 17.3307 176.879 12.173 178.793 7.38708C179.271 6.17897 179.836 5.06379 180.706 4.18094C181.315 3.57689 182.011 3.11223 182.881 3.53042C183.663 3.90215 183.837 4.87793 183.707 5.52845C183.055 8.64165 184.011 10.3609 187.708 10.3144C182.576 14.9145 180.706 20.4904 180.532 26.9026C180.445 31.131 180.88 35.3129 181.271 39.4948C181.315 40.0989 182.62 42.0504 180.184 41.0747C179.184 40.7029 179.314 42.5151 178.053 43.2121C174.487 34.1977 170.965 25.3228 167.181 15.8903Z" fill="#E41A1A"/>
<path d="M81.8117 23.4177C84.3776 24.1147 84.769 22.5349 84.856 20.7692C84.9864 17.656 84.2906 14.6822 83.1599 11.8013C86.7695 11.0579 87.7697 11.7084 88.3786 15.658C88.7265 17.7489 89.0744 19.8863 88.857 22.0702C88.7265 23.65 89.2484 24.2541 90.7705 24.0218C94.7715 23.3713 97.9027 21.3268 99.8597 17.6095C102.121 13.2882 99.2074 8.59518 94.0757 8.13052C90.5096 7.80526 87.0304 8.45579 83.6383 9.6639C82.9859 9.89622 82.1161 10.5467 81.7247 9.57096C80.768 7.24768 79.0284 7.57294 77.2454 7.71233C76.854 7.7588 76.4626 7.66588 75.8102 7.61941C76.767 5.71432 78.2456 4.785 79.8112 3.94862C85.1169 1.20715 90.814 0.603098 96.5111 1.48594C105.818 2.87991 109.166 13.2417 103.078 21.1874C101.817 22.8137 100.382 24.1612 98.642 25.0905C97.0764 25.9269 96.859 26.9956 97.2504 28.6219C98.729 34.523 101.295 39.7736 105.513 44.002C105.687 44.1414 105.731 44.3737 106.166 45.1636C102.991 44.0485 100.164 44.0485 97.3374 44.2343C96.2066 44.3272 95.8587 43.1656 95.4673 42.1898C93.7713 37.915 92.9015 33.3614 92.2056 28.8077C92.0317 27.7855 92.4666 26.5774 90.64 26.6703C89.0744 26.7632 88.4221 27.4138 88.4221 28.9471C88.3786 33.0826 87.5523 37.1251 86.9 41.1676C86.7695 42.004 86.813 43.0262 85.5518 42.608C84.0732 42.1434 82.725 42.608 81.3768 43.2585C80.8115 43.4909 80.2461 43.9555 79.5938 43.3515C78.898 42.701 79.3328 42.0969 79.5503 41.4928C80.7245 37.6827 81.8987 33.826 83.0729 30.0158C83.8122 27.5532 83.9862 25.3693 81.8117 23.4177Z" fill="#E41A1A"/>
<path d="M51.4563 43.1656C51.4128 42.2828 53.0654 42.004 51.6302 41.0282C45.6287 37.0786 43.1498 30.6664 41.6277 23.8359C40.3231 17.7954 40.7145 11.7084 43.4108 6.03957C44.3241 4.08801 49.5862 3.34457 50.8909 5.01733C51.8477 6.22544 51.3258 7.66587 50.8474 8.92044C48.7599 14.264 47.9337 19.7934 48.3685 25.5087C48.7165 30.3411 50.2386 34.6624 53.5872 38.1473C55.0224 39.6342 56.1096 39.4948 57.3708 38.0544C60.4585 34.523 61.8502 30.2017 62.2851 25.5087C62.807 19.7469 61.7197 14.264 59.9367 8.87397C59.4583 7.48001 59.0234 6.45777 61.1979 6.82949C62.459 7.06182 63.4158 6.22544 64.1986 5.0638C65.6772 2.87992 66.2861 2.92637 67.4168 5.34259C69.5043 9.75682 69.4608 14.4963 69.0694 19.1893C68.4605 26.0198 66.7645 32.4785 62.5025 37.8685C59.5888 41.3999 56.0226 43.4444 51.4563 43.1656Z" fill="#E41A1A"/>
<path d="M23.4492 46C21.3183 44.1878 21.3183 41.7252 20.7964 39.5877C20.492 38.2867 20.1441 37.3574 18.7089 37.3574C17.3173 37.3574 17.2738 36.4746 17.6652 35.22C19.7527 28.0643 20.3615 20.8156 19.3613 13.3347C19.1003 11.4761 18.7524 11.1508 17.1868 12.0336C13.7077 13.9852 11.2288 16.9125 9.75015 20.7692C9.18479 22.2096 8.70641 23.65 8.09756 25.044C7.79314 25.8339 7.31476 26.3915 6.44497 25.6945C5.09681 24.5794 3.79213 25.0905 2.40048 25.6945C0.312998 26.5774 -0.252361 26.1127 0.0955526 23.743C0.79138 18.957 3.05282 15.1004 6.48846 11.9872C8.96735 9.75683 11.6637 7.99113 14.7079 6.73655C17.6217 5.57491 17.6217 5.57492 16.2735 2.64758C16.0561 2.18293 15.4472 1.81121 15.8821 1.06776C16.6649 -0.23328 18.0566 -0.279749 18.8394 1.02129C20.7529 4.13448 21.6227 4.55268 25.0583 3.62337C28.2765 2.74052 31.4513 2.64759 35.1913 3.66983C32.5385 4.69208 30.277 5.38906 28.1461 6.4113C21.8401 9.33864 22.6229 8.50225 24.1451 14.9145C26.4935 24.9046 27.1893 34.8483 23.8841 44.7454C23.7537 45.1172 23.6232 45.4424 23.4492 46Z" fill="#E41A1A"/>
<path d="M300.693 45.9071C298.953 44.5131 298.605 42.7939 298.344 40.9817C298.083 39.1231 297.909 37.218 295.387 37.218C294.126 37.218 294.604 36.1958 294.822 35.3129C296.3 28.7148 297.649 22.0702 296.953 15.1933C296.909 14.9145 296.909 14.6822 296.866 14.4034C296.344 11.0579 295.996 10.9185 293.256 12.5448C289.647 14.6822 287.907 18.3065 286.341 22.1167C285.906 23.1389 285.602 24.2076 285.167 25.2299C284.95 25.7875 284.602 26.438 283.949 25.7875C282.471 24.347 280.949 25.044 279.47 25.6481C277.904 26.2986 276.991 26.5774 277.339 23.9288C278.209 17.4236 281.471 12.9165 286.689 9.84975C288.168 8.96691 289.647 8.177 291.169 7.38708C294.909 5.48199 294.909 5.48198 292.734 1.62533C295.17 -0.605017 295.257 -0.651477 296.866 2.18293C297.649 3.57689 298.518 3.99509 299.953 3.90216C303.911 3.62337 307.825 2.13647 312 3.66983C310.217 5.0638 308.129 5.24966 306.216 5.99311C299.953 8.50226 299.91 8.50224 301.302 15.3327C302.519 21.1409 303.65 26.9026 303.215 32.8967C302.911 37.218 301.997 41.4928 300.693 45.9071Z" fill="#E41A1A"/>
<path d="M239.286 28.3431C240.591 29.83 241.808 31.4098 243.244 32.8038C246.81 36.3352 250.985 37.1251 255.508 35.3594C258.769 34.1048 260.422 31.3633 260.335 27.6461C260.335 26.8562 260.117 26.0662 260.248 25.3228C260.509 23.8359 260.683 21.9773 262.292 21.5591C264.075 21.048 265.597 22.1631 266.51 23.8359C267.945 26.438 267.815 29.3188 267.25 32.1068C265.075 42.4221 256.551 46.4182 247.853 41.3534C243.026 38.519 240.199 34.1977 239.286 28.3431Z" fill="#E41A1A"/>
<path d="M266.641 17.8883C264.336 13.9387 261.379 11.6619 257.595 10.5932C250.985 8.73457 246.244 12.4983 246.244 19.7469C246.244 22.0237 246.505 24.3935 243.809 25.1834C242.2 25.6481 240.417 23.8824 239.504 20.8156C238.068 15.8438 239.156 11.3366 242.417 7.52646C245.722 3.62335 250.028 2.18292 254.638 3.66982C260.509 5.52845 264.814 9.61741 266.815 16.0761C266.902 16.3085 266.945 16.5408 266.989 16.8196C266.989 16.959 266.858 17.1448 266.641 17.8883Z" fill="#E41A1A"/>
<path d="M144.567 35.4058C143.566 34.523 142.61 33.6402 141.914 32.4785C141.218 31.2704 139.652 29.8764 142.523 29.4582C143.218 29.3653 143.566 28.7148 143.61 27.9249C143.61 26.8562 142.827 26.9956 142.262 26.9026C141.392 26.8097 140.522 26.8562 139.609 26.7632C139.174 26.7168 138.783 26.4844 138.783 26.0198C138.739 25.4157 139.261 25.4622 139.652 25.4157C140.783 25.2763 141.914 25.2763 143.001 24.9975C144.045 24.7652 144.61 23.8824 144.697 22.7672C144.828 21.4197 143.697 21.3732 142.914 21.0944C141.435 20.5833 139.87 20.7692 138.348 20.9086C136.913 21.048 136.304 20.5368 135.738 19.0964C134.042 14.6822 133.52 10.175 133.825 5.48199C133.912 4.36681 133.912 3.1587 132.564 2.78697C131.041 2.36878 131.172 3.85568 130.824 4.6456C130.259 6.1325 129.737 6.08604 128.954 4.83147C127.91 3.25164 126.606 1.99706 124.518 0.788957C124.953 1.90413 125.17 2.41526 125.388 2.92638C127.78 8.92044 128.128 15.0074 126.519 21.2803C126.04 23.1854 125.17 24.3935 123.257 24.8581C121.3 25.3228 119.386 26.1127 117.473 26.7632C119.038 27.1814 120.474 27.042 121.952 26.9956C122.518 26.9956 123.431 26.6703 123.561 27.5996C123.648 28.5289 122.866 28.8077 122.083 28.9471C120.952 29.1795 119.778 29.3188 118.734 30.1088C119.56 30.9451 120.43 30.2946 121.256 30.8057C119.647 33.4078 119.647 33.4543 114.429 35.6846C113.037 36.2887 112.341 36.7998 113.95 37.915C115.081 38.7049 115.429 39.8201 115.429 41.214C115.429 43.9555 115.733 44.0484 118.125 43.0262C123.126 40.9352 126.171 36.8927 128.041 31.7351C128.997 29.133 130.998 30.434 132.52 29.9694C133.999 29.5047 134.26 30.8057 134.695 31.7351C136.043 34.7553 137.217 37.8685 139 40.61C139.913 42.004 140.87 44.6525 142.262 44.0949C143.784 43.4909 143.566 40.8423 143.392 38.9372C143.305 38.0544 143.175 37.1251 144.262 36.8927C145.784 36.7069 145.306 36.0099 144.567 35.4058ZM131.041 19.4217C130.781 20.4904 132.52 21.5126 131.215 22.5349C130.998 22.6743 130.389 22.6743 130.346 22.5813C129.911 21.4197 130.65 20.4904 131.041 19.4217ZM130.694 27.6461C130.128 27.5996 129.302 27.9249 129.389 26.7632C129.476 25.4157 130.476 25.5551 131.302 25.5087C132.042 25.4622 132.825 25.4622 132.781 26.5774C132.738 27.4138 132.216 27.6925 130.694 27.6461Z" fill="#E41A1A"/>
</svg>
