<svg width="961" height="136" viewBox="0 0 961 136" fill="none" xmlns="http://www.w3.org/2000/svg">
<path d="M607.64 129.411C615.674 122.175 607.239 120.81 604.561 118.079C604.427 116.168 605.498 116.441 606.033 116.441C617.95 116.987 617.281 116.85 620.092 105.246C625.047 85.1763 622.636 66.1992 614.201 47.9047C612.059 43.1263 613.398 42.1706 617.682 42.3072C622.77 42.4437 627.055 39.9862 631.607 37.8018C636.026 35.6174 638.704 36.027 639.641 42.8533C642.854 67.0183 636.428 89.8182 631.473 113.028C630.938 115.349 629.867 117.806 633.616 117.67C647.541 116.987 661.332 115.076 672.847 106.065C690.253 92.4122 691.592 68.5202 676.194 50.6353C661.198 33.2965 641.917 28.7911 620.226 32.2042C617.816 32.6138 615.406 33.0234 612.996 33.5695C610.72 34.1156 609.649 33.8426 610.318 30.9755C611.389 26.4702 608.578 24.1492 605.364 21.9648C603.49 20.7361 601.615 19.5073 600.142 17.869C596.125 13.3637 597.062 10.3601 602.954 9.67746C627.992 6.81041 652.361 7.90263 674.587 22.1013C693.467 34.1156 702.304 52.0005 701.367 74.2542C700.295 99.6481 684.897 114.939 663.073 124.086C645.398 131.322 627.323 132.96 607.64 129.411Z" fill="#E41A1A"/>
<path d="M514.717 47.0855C514.182 80.2614 507.487 109.205 487.001 133.097C486.332 132.824 485.528 132.551 484.859 132.414C487.537 119.171 491.152 106.065 492.625 92.8218C495.035 71.9333 495.704 51.0448 483.386 32.3408C482.984 31.6581 482.717 30.8389 482.181 30.4294C475.62 24.9683 473.746 20.5995 483.788 16.9133C487.135 15.6846 486.599 11.1792 487.135 8.17564C488.206 1.89545 491.152 1.75894 496.106 3.6703C502.935 6.40082 506.014 12.1349 508.96 18.4151C517.127 35.4808 530.785 48.9969 538.551 66.6087C542.166 51.3178 544.576 36.1635 550.467 22.1013C551.94 18.5516 553.681 15.275 556.359 12.681C558.233 10.9061 560.375 9.54089 563.053 10.7696C565.463 11.8618 565.999 14.7289 565.597 16.6403C563.589 25.7875 566.534 30.839 577.916 30.7024C562.116 44.2185 556.359 60.6016 555.823 79.4422C555.555 91.8661 556.894 104.153 558.099 116.441C558.233 118.216 562.25 123.95 554.752 121.083C551.672 119.99 552.074 125.315 548.191 127.363C537.212 100.877 526.366 74.8003 514.717 47.0855Z" fill="#E41A1A"/>
<path d="M251.882 69.2028C259.782 71.2507 260.987 66.6088 261.255 61.4208C261.656 52.2736 259.514 43.5359 256.033 35.0713C267.146 32.8869 270.226 34.7982 272.1 46.4029C273.171 52.5466 274.243 58.8268 273.573 65.2435C273.171 69.8854 274.778 71.6602 279.464 70.9776C291.783 69.0662 301.423 63.0591 307.448 52.137C314.411 39.4401 305.44 25.651 289.64 24.2857C278.661 23.33 267.95 25.2414 257.506 28.7911C255.497 29.4737 252.819 31.3851 251.614 28.518C248.669 21.6917 243.313 22.6474 237.823 23.057C236.618 23.1935 235.413 22.9205 233.405 22.784C236.35 17.1864 240.903 14.4558 245.723 11.9984C262.058 3.94334 279.598 2.16852 297.139 4.76251C325.792 8.85829 336.102 39.3036 317.357 62.6495C313.474 67.4279 309.055 71.3872 303.699 74.1177C298.879 76.5752 298.21 79.7153 299.415 84.4937C303.967 101.832 311.867 117.26 324.855 129.684C325.39 130.093 325.524 130.776 326.863 133.097C317.089 129.82 308.386 129.82 299.683 130.366C296.201 130.639 295.13 127.226 293.925 124.359C288.703 111.799 286.025 98.4193 283.883 85.0398C283.347 82.0362 284.686 78.4866 279.063 78.7596C274.243 79.0327 272.234 80.944 272.234 85.4494C272.1 97.6002 269.556 109.478 267.548 121.356C267.146 123.813 267.28 126.817 263.397 125.588C258.845 124.223 254.694 125.588 250.543 127.499C248.803 128.182 247.062 129.547 245.054 127.772C242.911 125.861 244.25 124.086 244.92 122.311C248.535 111.116 252.15 99.7846 255.765 88.5894C258.041 81.3536 258.577 74.9369 251.882 69.2028Z" fill="#E41A1A"/>
<path d="M158.424 127.226C158.29 124.632 163.378 123.813 158.959 120.946C140.482 109.341 132.85 90.5008 128.164 70.4315C124.147 52.6831 125.352 34.7982 133.653 18.142C136.465 12.4079 152.666 10.2236 156.683 15.1385C159.629 18.6882 158.022 22.9205 156.549 26.6067C150.122 42.3072 147.578 58.5538 148.917 75.3465C149.988 89.5452 154.675 102.242 164.985 112.481C169.403 116.85 172.75 116.441 176.633 112.208C186.14 101.832 190.425 89.1356 191.764 75.3465C193.37 58.4172 190.023 42.3071 184.533 26.4701C183.06 22.3744 181.721 19.3708 188.416 20.463C192.299 21.1456 195.245 18.6882 197.655 15.275C202.207 8.85831 204.082 8.9948 207.563 16.0942C213.99 29.0641 213.856 42.9898 212.651 56.7789C210.777 76.8482 205.555 95.8253 192.433 111.662C183.462 122.038 172.483 128.045 158.424 127.226Z" fill="#E41A1A"/>
<path d="M72.1956 135.554C65.6348 130.23 65.6348 122.994 64.028 116.714C63.0908 112.891 62.0196 110.161 57.6011 110.161C53.3165 110.161 53.1826 107.567 54.3876 103.88C60.8146 82.8554 62.6891 61.5573 59.6095 39.5766C58.8061 34.1156 57.735 33.1599 52.9148 35.7539C42.2032 41.488 34.5712 50.0891 30.0188 61.4208C28.2782 65.6531 26.8053 69.8854 24.9308 73.9812C23.9935 76.3021 22.5207 77.9404 19.8428 75.8926C15.6921 72.6159 11.6752 74.1177 7.3906 75.8926C0.96366 78.4865 -0.776969 77.1213 0.294188 70.1584C2.4365 56.0963 9.39902 44.7646 19.9767 35.6174C27.6087 29.0641 35.9102 23.8761 45.2828 20.1899C54.2537 16.7768 54.2537 16.7768 50.103 8.17566C49.4335 6.8104 47.559 5.7182 48.8979 3.53378C51.308 -0.288944 55.5927 -0.425478 58.0028 3.39725C63.8941 12.5445 66.572 13.7732 77.1497 11.0427C87.0579 8.44872 96.8322 8.17567 108.347 11.1792C100.18 14.1828 93.2171 16.2307 86.6562 19.2343C67.2415 27.8354 69.6516 25.3779 74.3379 44.2185C81.5682 73.5716 83.7105 102.788 73.5345 131.868C73.1329 132.96 72.7312 133.916 72.1956 135.554Z" fill="#E41A1A"/>
<path d="M925.774 135.281C920.418 131.186 919.347 126.134 918.544 120.81C917.74 115.349 917.205 109.751 909.439 109.751C905.556 109.751 907.029 106.747 907.698 104.153C912.25 84.7667 916.401 65.2435 914.259 45.0377C914.125 44.2185 914.125 43.5359 913.991 42.7167C912.384 32.8868 911.313 32.4773 902.878 37.2557C891.765 43.5359 886.409 54.1849 881.589 65.38C880.25 68.3836 879.312 71.5237 877.973 74.5273C877.304 76.1656 876.233 78.0769 874.224 76.1656C869.672 71.9333 864.986 73.9812 860.433 75.756C855.613 77.6674 852.801 78.4865 853.872 70.7045C856.55 51.5909 866.592 38.3479 882.66 29.3372C887.212 26.7432 891.765 24.4223 896.451 22.1013C907.966 16.5038 907.966 16.5037 901.271 5.17206C908.769 -1.38119 909.037 -1.51769 913.991 6.81039C916.401 10.9062 919.079 12.1349 923.498 11.8619C935.682 11.0427 947.733 6.67388 960.586 11.1792C955.097 15.275 948.67 15.8211 942.779 18.0055C923.498 25.3779 923.364 25.3779 927.648 45.4472C931.397 62.513 934.879 79.4422 933.54 97.0541C932.602 109.751 929.791 122.311 925.774 135.281Z" fill="#E41A1A"/>
<path d="M736.715 83.6745C740.731 88.0433 744.481 92.6852 748.899 96.781C759.878 107.157 772.732 109.478 786.657 104.29C796.699 100.604 801.787 92.5487 801.52 81.6266C801.52 79.3057 800.85 76.9847 801.252 74.8003C802.055 70.4315 802.591 64.9705 807.545 63.7417C813.035 62.24 817.721 65.5166 820.533 70.4315C824.951 78.077 824.549 86.5415 822.809 94.7331C816.114 125.042 789.871 136.783 763.092 121.902C748.23 113.574 739.526 100.877 736.715 83.6745Z" fill="#E41A1A"/>
<path d="M820.934 52.9561C813.838 41.3514 804.733 34.6617 793.084 31.5216C772.732 26.0605 758.138 37.1191 758.138 58.4172C758.138 65.1069 758.941 72.0698 750.64 74.3907C745.686 75.756 740.196 70.568 737.384 61.5573C732.966 46.949 736.313 33.706 746.355 22.5109C756.531 11.0427 769.787 6.81038 783.979 11.1792C802.055 16.6403 815.311 28.6545 821.47 47.6316C821.738 48.3143 821.872 48.9969 822.005 49.8161C822.005 50.2256 821.604 50.7717 820.934 52.9561Z" fill="#E41A1A"/>
<path d="M445.092 104.426C442.013 101.832 439.067 99.2385 436.925 95.8253C434.782 92.2757 429.962 88.1799 438.799 86.9512C440.941 86.6781 442.013 84.7667 442.146 82.4458C442.146 79.3057 439.736 79.7153 437.996 79.4422C435.318 79.1692 432.64 79.3057 429.828 79.0326C428.489 78.8961 427.284 78.2135 427.284 76.8482C427.15 75.0734 428.757 75.2099 429.962 75.0734C433.443 74.6638 436.925 74.6638 440.272 73.8447C443.485 73.162 445.226 70.568 445.494 67.2914C445.895 63.3321 442.414 63.1956 440.004 62.3765C435.452 60.8747 430.632 61.4208 425.945 61.8303C421.527 62.2399 419.652 60.7381 417.912 56.5058C412.69 43.5359 411.083 30.2929 412.02 16.5037C412.288 13.2271 412.288 9.67742 408.137 8.58521C403.451 7.35648 403.853 11.7253 402.781 14.0462C401.041 18.4151 399.434 18.2786 397.024 14.5924C393.81 9.9505 389.794 6.26428 383.367 2.71461C384.706 5.99123 385.375 7.49303 386.045 8.99481C393.409 26.6067 394.48 44.4916 389.526 62.9226C388.053 68.5201 385.375 72.0698 379.484 73.4351C373.458 74.8003 367.567 77.1213 361.676 79.0326C366.496 80.2614 370.914 79.8518 375.467 79.7152C377.208 79.7152 380.019 78.7596 380.421 81.4901C380.689 84.2206 378.279 85.0398 375.869 85.4494C372.387 86.132 368.772 86.5416 365.559 88.8625C368.103 91.32 370.781 89.4086 373.325 90.9104C368.37 98.5559 368.371 98.6924 352.303 105.246C348.019 107.02 345.876 108.522 350.83 111.799C354.312 114.12 355.383 117.396 355.383 121.492C355.383 129.547 356.32 129.82 363.684 126.817C379.082 120.673 388.455 108.795 394.212 93.6409C397.158 85.9955 403.317 89.8182 408.003 88.4529C412.556 87.0876 413.359 90.9104 414.698 93.6409C418.849 102.515 422.464 111.662 427.954 119.717C430.765 123.813 433.711 131.595 437.996 129.957C442.682 128.182 442.013 120.4 441.477 114.802C441.209 112.208 440.807 109.478 444.155 108.795C448.841 108.249 447.368 106.201 445.092 104.426ZM403.451 57.4615C402.647 60.6016 408.003 63.6052 403.986 66.6087C403.317 67.0183 401.442 67.0183 401.309 66.7453C399.97 63.3321 402.246 60.6016 403.451 57.4615ZM402.38 81.6266C400.639 81.4901 398.095 82.4458 398.363 79.0326C398.631 75.0734 401.71 75.483 404.254 75.3464C406.53 75.2099 408.941 75.2099 408.807 78.4865C408.673 80.944 407.066 81.7631 402.38 81.6266Z" fill="#E41A1A"/>
</svg>
