<svg width="24" height="24" viewBox="0 0 24 24" fill="none" xmlns="http://www.w3.org/2000/svg">
<path fill-rule="evenodd" clip-rule="evenodd" d="M12.1747 15.2174H11.825C9.42158 15.2174 7.4735 13.2927 7.4735 10.9203V6.29706C7.4735 3.92373 9.42158 2 11.825 2H12.1747C14.5781 2 16.5271 3.92373 16.5271 6.29706V10.9203C16.5271 13.2927 14.5781 15.2174 12.1747 15.2174ZM18.5626 10.783C18.5626 10.254 18.9966 9.82642 19.5313 9.82642C20.066 9.82642 20.5 10.254 20.5 10.783C20.5 15.0868 17.2006 18.6406 12.9692 19.1179V21.0436C12.9692 21.5716 12.5352 22.0002 12.0005 22.0002C11.4648 22.0002 11.0318 21.5716 11.0318 21.0436V19.1179C6.79945 18.6406 3.5 15.0868 3.5 10.783C3.5 10.254 3.93398 9.82642 4.46872 9.82642C5.00345 9.82642 5.43743 10.254 5.43743 10.783C5.43743 14.3559 8.38136 17.2631 12.0005 17.2631C15.6186 17.2631 18.5626 14.3559 18.5626 10.783Z" fill="#7E8892"/>
</svg>
