<svg width="18" height="12" viewBox="0 0 18 12" fill="none" xmlns="http://www.w3.org/2000/svg">
<path opacity="0.75" d="M16.9248 1.87771C16.7328 1.14347 16.1698 0.564674 15.4559 0.366965C14.1517 0 8.93471 0 8.93471 0C8.93471 0 3.71792 0 2.4137 0.353052C1.71352 0.550552 1.13684 1.14357 0.944784 1.87771C0.601562 3.21879 0.601562 6 0.601562 6C0.601562 6 0.601562 8.79523 0.944784 10.1223C1.13705 10.8564 1.69979 11.4352 2.4138 11.6329C3.73165 12 8.93491 12 8.93491 12C8.93491 12 14.1517 12 15.4559 11.6469C16.1699 11.4493 16.7328 10.8705 16.925 10.1364C17.2682 8.79523 17.2682 6.01412 17.2682 6.01412C17.2682 6.01412 17.2819 3.21879 16.9248 1.87771ZM7.27373 8.56938V3.43062L11.6119 6L7.27373 8.56938Z" fill="#171717"/>
</svg>
